<?xml version="1.0" encoding="utf-8"?>
<!-- Generator: Adobe Illustrator 16.0.0, SVG Export Plug-In . SVG Version: 6.00 Build 0)  -->
<!DOCTYPE svg PUBLIC "-//W3C//DTD SVG 1.1//EN" "http://www.w3.org/Graphics/SVG/1.1/DTD/svg11.dtd">
<svg version="1.1" id="Layer_1" xmlns="http://www.w3.org/2000/svg" xmlns:xlink="http://www.w3.org/1999/xlink" x="0px" y="0px"
	 width="283.46px" height="283.46px" viewBox="0 0 283.46 283.46" enable-background="new 0 0 283.46 283.46" xml:space="preserve">
<g>
	<path fill="#707173" d="M89.575,220.201v1.559h-3.363v9.222h-1.938v-9.222h-3.363v-1.559H89.575z"/>
	<path fill="#707173" d="M90.799,220.335c0.757-0.134,2.16-0.245,3.43-0.245c1.804,0,4.789,0.29,4.789,2.695
		c0,1.336-1.024,2.16-2.25,2.428v0.045c1.582,0.222,2.74,1.113,2.74,2.673c0,2.828-3.564,3.185-5.68,3.185
		c-1.203,0-2.45-0.089-3.029-0.134V220.335z M92.647,229.689c0.557,0.066,0.958,0.09,1.582,0.09c1.314,0,3.274-0.313,3.274-1.872
		c0-1.559-1.559-1.893-3.43-1.893h-1.425V229.689z M92.669,224.723h1.47c1.448,0,2.94-0.423,2.94-1.692
		c0-1.069-0.935-1.582-2.895-1.582c-0.646,0-1.047,0.045-1.515,0.09V224.723z"/>
	<path fill="#707173" d="M103.715,217.172c0.022,0.669-0.468,1.203-1.247,1.203c-0.691,0-1.181-0.534-1.181-1.203
		c0-0.69,0.512-1.225,1.225-1.225C103.248,215.947,103.715,216.481,103.715,217.172z M101.533,230.981v-10.78h1.96v10.78H101.533z"
		/>
	<path fill="#707173" d="M108.102,220.201v4.544c0,1.715-0.022,2.784-0.111,4.321l0.066,0.022c0.646-1.314,1.025-2.072,1.737-3.319
		l3.363-5.568h2.294v10.78h-1.871v-4.566c0-1.759,0.044-2.673,0.134-4.41h-0.067c-0.69,1.382-1.158,2.25-1.782,3.341
		c-1.025,1.671-2.205,3.743-3.363,5.636h-2.25v-10.78H108.102z M109.372,215.813c0.066,0.957,0.534,1.692,1.425,1.692
		c0.958,0,1.403-0.713,1.515-1.692h1.403c-0.089,1.826-1.248,2.762-2.962,2.762c-1.96,0-2.718-1.226-2.807-2.762H109.372z"/>
	<path fill="#707173" d="M130.818,220.201v9.311l1.114,0.022l-0.112,4.877h-1.537l-0.089-3.43h-7.461l-0.089,3.43h-1.537
		l-0.089-4.877l0.914-0.022c0.468-0.69,0.824-1.426,1.069-2.205c0.423-1.337,0.624-2.784,0.624-4.299v-2.807H130.818z
		 M125.36,223.476c0,1.425-0.2,2.807-0.557,4.009c-0.223,0.735-0.534,1.403-0.869,2.005h4.967v-7.796h-3.542V223.476z"/>
	<path fill="#707173" d="M143.49,225.503c0,3.986-2.763,5.724-5.369,5.724c-2.918,0-5.167-2.138-5.167-5.546
		c0-3.608,2.361-5.725,5.346-5.725C141.396,219.956,143.49,222.206,143.49,225.503z M134.937,225.613
		c0,2.361,1.359,4.143,3.274,4.143c1.871,0,3.274-1.759,3.274-4.187c0-1.827-0.913-4.143-3.229-4.143
		S134.937,223.564,134.937,225.613z"/>
	<path fill="#707173" d="M145.625,220.201h2.406l1.96,5.435c0.267,0.802,0.735,2.116,0.979,2.963h0.045
		c0.245-0.802,0.846-2.517,1.27-3.698l1.737-4.699h2.428l0.757,10.78h-1.87l-0.245-5.145c-0.066-1.158-0.156-2.54-0.201-3.854
		h-0.066c-0.289,0.979-0.579,1.849-1.18,3.496l-2.072,5.436h-1.426l-1.915-5.324c-0.334-1.024-0.802-2.583-1.069-3.586h-0.089
		c-0.044,1.271-0.111,2.695-0.179,3.876l-0.268,5.101h-1.803L145.625,220.201z"/>
	<path fill="#707173" d="M169.055,225.503c0,3.986-2.762,5.724-5.368,5.724c-2.918,0-5.167-2.138-5.167-5.546
		c0-3.608,2.36-5.725,5.346-5.725C166.961,219.956,169.055,222.206,169.055,225.503z M160.502,225.613
		c0,2.361,1.358,4.143,3.273,4.143c1.871,0,3.274-1.759,3.274-4.187c0-1.827-0.913-4.143-3.229-4.143
		S160.502,223.564,160.502,225.613z"/>
	<path fill="#707173" d="M171.035,220.335c0.757-0.134,2.16-0.245,3.43-0.245c1.805,0,4.789,0.29,4.789,2.695
		c0,1.336-1.025,2.16-2.25,2.428v0.045c1.582,0.222,2.74,1.113,2.74,2.673c0,2.828-3.564,3.185-5.68,3.185
		c-1.203,0-2.451-0.089-3.029-0.134V220.335z M172.883,229.689c0.558,0.066,0.959,0.09,1.582,0.09c1.314,0,3.273-0.313,3.273-1.872
		c0-1.559-1.559-1.893-3.43-1.893h-1.426V229.689z M172.906,224.723h1.47c1.447,0,2.94-0.423,2.94-1.692
		c0-1.069-0.936-1.582-2.896-1.582c-0.646,0-1.047,0.045-1.514,0.09V224.723z"/>
	<path fill="#707173" d="M183.572,220.201v4.544c0,1.715-0.021,2.784-0.11,4.321l0.066,0.022c0.646-1.314,1.024-2.072,1.737-3.319
		l3.363-5.568h2.294v10.78h-1.87v-4.566c0-1.759,0.044-2.673,0.133-4.41h-0.066c-0.69,1.382-1.158,2.25-1.782,3.341
		c-1.024,1.671-2.205,3.743-3.362,5.636h-2.25v-10.78H183.572z"/>
	<path fill="#707173" d="M195.465,220.201v4.544c0,1.715-0.022,2.784-0.111,4.321l0.066,0.022c0.646-1.314,1.024-2.072,1.737-3.319
		l3.363-5.568h2.294v10.78h-1.871v-4.566c0-1.759,0.045-2.673,0.134-4.41h-0.066c-0.69,1.382-1.158,2.25-1.782,3.341
		c-1.024,1.671-2.205,3.743-3.363,5.636h-2.25v-10.78H195.465z M196.734,215.813c0.066,0.957,0.534,1.692,1.426,1.692
		c0.957,0,1.402-0.713,1.514-1.692h1.403c-0.089,1.826-1.247,2.762-2.962,2.762c-1.96,0-2.718-1.226-2.807-2.762H196.734z"/>
	<path fill="#707173" d="M106.777,237.072c0.022,0.668-0.468,1.203-1.248,1.203c-0.69,0-1.181-0.535-1.181-1.203
		c0-0.69,0.513-1.225,1.226-1.225C106.31,235.848,106.777,236.382,106.777,237.072z M104.595,250.882v-10.78h1.959v10.78H104.595z"
		/>
	<path fill="#707173" d="M111.253,240.102v4.344h5.123v-4.344h1.938v10.78h-1.938v-4.878h-5.123v4.878h-1.938v-10.78H111.253z"/>
	<path fill="#707173" d="M128.29,240.102v1.559h-3.363v9.222h-1.938v-9.222h-3.363v-1.559H128.29z"/>
	<path fill="#707173" d="M130.36,245.849c0.045,2.649,1.737,3.741,3.697,3.741c1.403,0,2.25-0.245,2.985-0.557l0.334,1.403
		c-0.691,0.312-1.872,0.668-3.586,0.668c-3.319,0-5.301-2.183-5.301-5.435s1.916-5.813,5.056-5.813c3.519,0,4.455,3.096,4.455,5.078
		c0,0.401-0.044,0.713-0.066,0.914H130.36z M136.107,244.445c0.022-1.248-0.512-3.186-2.717-3.186c-1.982,0-2.851,1.826-3.007,3.186
		H136.107z"/>
	<path fill="#707173" d="M139.98,243.62c0-1.381-0.044-2.494-0.089-3.519h1.759l0.089,1.849h0.044
		c0.802-1.314,2.071-2.094,3.831-2.094c2.606,0,4.566,2.205,4.566,5.479c0,3.875-2.361,5.791-4.9,5.791
		c-1.426,0-2.672-0.624-3.318-1.692h-0.044v5.857h-1.938V243.62z M141.918,246.494c0,0.289,0.044,0.557,0.089,0.802
		c0.356,1.358,1.538,2.294,2.94,2.294c2.072,0,3.274-1.692,3.274-4.165c0-2.16-1.136-4.009-3.208-4.009
		c-1.336,0-2.583,0.957-2.962,2.428c-0.066,0.244-0.133,0.534-0.133,0.802V246.494z"/>
	<path fill="#707173" d="M154.1,240.102v4.344h5.123v-4.344h1.938v10.78h-1.938v-4.878H154.1v4.878h-1.938v-10.78H154.1z"/>
	<path fill="#707173" d="M165.012,245.849c0.044,2.649,1.736,3.741,3.697,3.741c1.402,0,2.249-0.245,2.984-0.557l0.334,1.403
		c-0.69,0.312-1.871,0.668-3.586,0.668c-3.318,0-5.301-2.183-5.301-5.435s1.915-5.813,5.056-5.813c3.519,0,4.454,3.096,4.454,5.078
		c0,0.401-0.044,0.713-0.066,0.914H165.012z M170.758,244.445c0.021-1.248-0.512-3.186-2.717-3.186
		c-1.982,0-2.852,1.826-3.008,3.186H170.758z"/>
	<path fill="#707173" d="M181.826,240.102v1.559h-3.363v9.222h-1.938v-9.222h-3.363v-1.559H181.826z"/>
</g>
<g>
	<path d="M85.874,202.332l-11-14.352l-4.362,16.059l-9.989-5.059l1.012-43.053l19.346,2.023l-4.362,19.345l15.426-22.127
		l14.604,5.753l-18.334,19.03l19.346,18.396L85.874,202.332z"/>
	<path d="M123.995,205.872l-13.276-6.828l8.472-10.81l-15.299-28.071l17.449-6.321l3.603,25.604l7.271-25.731l14.667,3.667
		L123.995,205.872z"/>
	<path d="M172.611,180.9c3.225,2.339,6.576,5.88,6.576,10.115c0,10.241-12.708,13.908-21.053,13.908
		c-6.26,0-10.495-1.454-15.616-5.058l7.46-12.896c2.34,3.16,6.006,6.259,10.179,6.259c2.339,0,4.741-1.392,4.741-3.983
		c0-3.667-4.678-7.207-7.965-8.029v-1.58c2.086-0.253,6.448-2.276,6.448-4.742c0-2.718-1.96-4.615-4.615-4.615
		c-3.92,0-8.978,2.846-12.328,4.806l-1.138-17.702c4.551-1.518,9.293-2.149,14.098-2.149c9.104,0,23.961,2.845,23.961,14.478
		C183.359,175.463,177.164,178.813,172.611,180.9z"/>
	<path d="M213.768,202.332l-2.022-17.133l-15.806,20.42l-15.488-14.541l18.84-9.862c-5.121-2.275-10.559-6.195-10.559-12.454
		c0-11.063,14.352-14.92,23.202-14.92c4.299,0,8.725,0.632,12.518,2.528l1.644,45.203L213.768,202.332z M210.164,166.106
		c-2.719,0-5.689,2.213-5.689,5.121c0,3.793,3.73,5.437,6.954,5.437l0.316-0.063l0.632-9.988
		C211.682,166.296,210.923,166.106,210.164,166.106z"/>
</g>
<g>
	<path fill-rule="evenodd" clip-rule="evenodd" fill="#EE7F00" d="M83.964,112.455c-2.792,6.683-3.092,9.074-2.692,8.178
		c0.398-0.898,5.883-6.183,5.883-6.183l-2.094,7.079c0,0,7.181-5.982,5.784-4.586c-1.396,1.396-3.091,7.978-2.693,7.279
		c0.399-0.697,3.59-3.79,3.59-3.79s-1.196,3.89-1.994,5.186c-0.798,1.298-1.596,2.894-1.596,2.894s4.788-3.79,7.38-4.588
		c2.593-0.799,3.59-0.998,3.59-0.998l-6.582,7.081l8.477-2.992l-4.188,4.786c0,0,2.194-0.597,5.186-1.295s6.483-1.596,6.483-1.596
		s-5.088,5.385-3.591,4.886c1.496-0.498,9.375-2.394,8.577-1.396c-0.798,0.998-3.391,3.094-2.493,2.992
		c0.897-0.1,5.485-2.094,5.086-1.396c-0.398,0.699-5.984,4.887-5.984,4.887l6.881-1.396c0,0-2.692,3.391-3.789,4.188
		c-1.097,0.797-1.196,0.897-1.196,0.897s9.474-5.784,8.975-4.487c-0.499,1.297-2.493,4.089-3.291,4.387
		c-0.798,0.301-1.596,0.5-0.897,0.5c0.699,0,2.493,1.995,9.874-0.1c7.38-2.094,12.066-3.691,12.066-3.691s5.786,3.291,12.266,4.589
		c6.483,1.296,15.957,1.296,15.957,1.296l-5.784-2.992c0,0,5.884-0.998,9.573-0.498c3.691,0.498,7.381,1.995,7.381,1.995
		l-4.388-5.286c0,0,6.282,3.491,7.181,3.689c0.896,0.2,1.994,0.299,1.994,0.299l-5.686-7.978c0,0,2.693,2.693,7.182,2.693
		c4.486,0,7.379,0,7.379,0l-6.083-5.286c0,0-1.396-2.293,5.185-0.797c6.584,1.494,6.084,3.289,6.084,3.289s-1.195-3.19-3.191-5.185
		c-1.994-1.995-2.193-2.094-2.193-2.094s5.086,3.889,8.078,4.088c2.991,0.2,2.792,0.2,2.792,0.2s-4.688-2.692-5.685-3.89
		s-1.295-1.297-1.596-1.995c-0.299-0.698-2.294-4.387-2.294-4.387s3.591,2.493,5.187,3.988c1.596,1.496,1.795,2.394,1.795,1.795
		s-1.695-4.588-3.49-6.881c-1.795-2.294-2.095-2.594-2.095-2.594s3.79-0.398,5.585,2.193c1.795,2.595,2.193,4.489,2.193,3.69
		c0-0.796-1.595-6.382-2.592-8.875s-1.497-3.392-1.497-3.392s2.594,0.399,5.586,4.588c2.991,4.188,2.792,5.984,2.991,4.887
		c0.2-1.097-1.098-5.983-1.596-9.774c-0.498-3.789-3.789-9.574-3.789-9.574s4.688,7.38,4.688,6.682s-0.598-6.382-1.496-8.079
		c-0.898-1.694-1.197-2.194-1.197-2.194l5.585,5.784c0,0,0.101-5.883-3.69-8.675c-3.789-2.793-3.889-2.991-3.889-2.991
		s3.59,0.099,4.487,1.495c0.897,1.397,0.897,1.497,0.897,1.497s-0.998-3.59-2.193-5.485c-1.197-1.895-3.99-4.488-3.99-4.488
		s4.588,1.497,5.286,2.493c0.698,0.998,0.698,0.998,0.698,0.998s-0.997-3.49-2.992-6.183c-1.994-2.693-2.892-3.889-2.892-3.889
		s4.985,2.692,5.485,3.789c0.498,1.097,0.299,1.994,0.498,1.196c0.199-0.797,0.199-6.083-2.194-9.373
		c-2.394-3.292-3.89-4.089-3.89-4.089s-2.592-1.496,1.098-2.095c3.689-0.598,3.689-0.598,3.689-0.598s-1.096-0.5-4.288-1.097
		c-3.192-0.598-7.479,0-7.081-0.598c0.398-0.599,5.087-3.292,5.087-3.292l-6.98-0.498l-1.497-0.399c0,0,5.387-1.396,7.182-1.097
		s1.994,0.299,1.994,0.299s-1.797-2.194-4.389-3.092s-7.18-1.496-7.18-1.496l4.786-3.391l-4.786,1.895l2.592-4.886
		c0,0-3.291,2.393-5.085,2.992c-1.795,0.599-6.482,0.798-6.482,0.798s5.884-1.896,7.479-2.893s1.596-0.997,1.596-0.997
		s-6.582,1.197-7.979,0.199c-1.396-0.998-1.795-1.098-1.795-1.098l5.883-3.39c0,0-3.39,0.299-5.484,0.997
		c-2.094,0.698-3.092,0.698-3.092,0.698l3.988-3.39c0,0-3.489-0.101-6.979,1.295c-3.491,1.397-4.188,1.597-4.188,1.597
		s5.884-5.187,4.587-4.887c-1.296,0.299-6.582,2.793-5.983,1.796c0.599-0.998,1.695-3.39,0.997-3.092s-6.979,3.391-8.178,3.589
		c-1.196,0.2-2.692,1.596-1.694-0.298c0.996-1.896,1.396-5.286,1.396-5.286s-3.591,5.385-3.49,4.587
		c0.101-0.799-1.097-3.191-1.097-4.788s-0.1-1.795-0.1-1.795s-2.195,2.593-2.494,4.288c-0.299,1.696-0.598,1.996-0.598,1.996
		s-0.998-2.993-0.998-4.288c0-1.297-0.299-1.896-0.299-1.896s-0.997,3.191-2.193,4.587c-1.197,1.396-2.395,1.995-2.395,1.995
		s-0.896-5.086-0.896-4.388c0,0.697-1.297,3.191-1.297,3.191l-0.998-1.396l-1.695,3.091c0,0-2.293,1.896-2.194,1.098
		c0.099-0.798,0.299-6.881,0.299-6.881s-1.695,3.589-3.391,4.887c-1.694,1.295-2.692,1.994-2.692,1.994s-2.792-3.99-2.394-2.992
		c0.398,0.998-0.099,4.887-0.099,4.388c0-0.498-7.081-7.678-7.081-7.678l2.494,6.083c0,0-2.693-0.5-3.79-2.095
		c-1.098-1.595-1.397-1.895-1.397-1.895s2.094,4.388,0.1,3.59c-1.994-0.798-4.787-1.396-4.787-1.396s5.983,3.789,2.792,3.191
		c-3.191-0.599-11.069,0.997-10.371,0.897c0.698-0.099,6.182,0.599,4.087,0.898c-2.094,0.299-4.387-0.2-7.18,1.296
		c-2.792,1.496-3.988,2.493-3.988,2.493s3.49-0.798,5.584-0.299c2.094,0.498,2.094,0.498,2.094,0.498s-7.779,2.593-9.175,2.693
		s-2.093,0.399-2.093,0.399l1.894,1.296c0,0-4.687-0.1-6.083,0.698c-1.396,0.797-2.891,2.494-2.891,2.494l4.487-1.197
		c0,0-3.491,1.995-4.887,3.191c-1.396,1.197-5.984,2.992-5.984,2.992s3.092-0.398,5.286-0.798c2.193-0.399,3.091-0.698,3.091-0.698
		s-10.172,5.485-11.269,7.081c-1.097,1.596-2.693,3.192-1.696,2.593c0.998-0.599,3.491-2.992,6.683-3.391s2.991-0.199,2.293,0.199
		c-0.698,0.399-7.979,8.178-7.979,8.178l1.597-0.698c0,0-1.198,2.493-1.695,3.091c-0.499,0.599-3.69,2.893-1.896,2.693
		c1.795-0.2,3.292-0.2,3.292-0.2s-5.984,4.688-6.084,6.083c-0.101,1.397-0.598,2.094-0.101,1.397c0.5-0.698,3.99-3.292,5.187-3.392
		c1.196-0.099,1.696-0.598,0.897,0.1c-0.798,0.699-7.081,9.773-7.081,9.773s2.194-1.495,1.995-0.996
		c-0.199,0.498-2.095,3.09-1.695,4.986c0.399,1.895,1.296,4.885,1.396,4.187c0.101-0.696,1.795-2.592,1.795-2.592
		s0.399,5.086,0.299,6.482c-0.1,1.396,0.1,3.392,0.2,2.893c0.099-0.499,3.988-6.682,3.091-4.788
		c-0.897,1.895-1.695,11.37-1.695,11.37L83.964,112.455L83.964,112.455z"/>
	<path fill-rule="evenodd" clip-rule="evenodd" fill="#E75113" d="M87.988,86.17c-10.967,8.695-14.92,20.059-14.031,19.269
		c0.889-0.79,1.779-4.445,5.929-7.412c1.713-1.223,3.14-2.313,4.226-3.169c-0.788,1.351-1.483,2.566-2.096,3.657
		c-1.672,2.151-2.926,3.874-1.834,2.874c0.188-0.173,0.368-0.352,0.543-0.534c-3.205,5.913-3.31,7.055-3.31,7.055
		s4.274-7.166,6.997-11.202c0.959-0.854,2.144-1.634,3.774-2.235c4.545-1.68,5.633-2.076,5.633-2.076s-3.36,5.04-9.487,9.684
		c-6.125,4.643-7.707,12.747-7.411,12.252s0.494-3.557,6.126-7.609c5.633-4.049,8.893-6.52,8.893-6.52s-8.399,7.706-9.979,11.659
		c-1.582,3.954-1.582,3.954-1.582,3.954s0.297-3.657,6.325-6.622c1.248-0.614,3.149-1.354,5.38-2.144
		c-4.147,4.478-7.655,10.247-7.655,10.247s4.05-3.677,10.231-8.347c0.366,0.178,0.804,0.386,1.331,0.64
		c0.305,0.147,0.58,0.282,0.83,0.407c-4.896,3.14-10.631,7.527-12.787,11.943c4.776-5.33,10.767-8.601,15.1-10.444
		c0.25,0.33,0.286,0.654,0.495,1.181c-3.779,3.198-7.915,7.195-9.568,10.547c4.215-3.976,7.925-6.65,10.865-8.43
		c0.069,0.088,0.141,0.177,0.216,0.271c-3.554,3.665-7.58,8.775-10.686,15.373c3.879-6.446,9.536-10.389,13.626-12.569
		c0.669,0.451,1.325,0.771,1.992,1.009c-4.019,2.5-7.54,4.945-8.8,6.521c-3.557,4.446-4.348,6.621-3.952,5.831
		c0.395-0.791,2.271-4.349,7.212-6.522c4.94-2.173,7.51-3.358,7.51-3.358s-10.178,7.113-10.771,9.881
		c3.354-2.751,6.903-4.649,10.226-5.976c-2.26,2.346-4.7,5.339-7.162,9.137c4.614-6.553,11.807-10.074,15.975-11.665
		c0.643-0.12,1.241-0.221,1.788-0.306c-4.171,4.128-8.906,7.887-12.427,8.019c3.204-0.556,6.421-1.709,9.416-3.098
		c-3.202,2.61-6.12,5.385-7.831,7.937c-2.554,0.445-5.227,0.665-8.008,0.596c2.87-0.126,5.533-0.329,8.004-0.592
		c-0.454,0.677-0.822,1.339-1.087,1.976c0.703-0.731,1.421-1.427,2.15-2.091c4.728-0.541,8.722-1.294,12.076-2.141
		c-2.218,1.864-4.949,3.757-8.297,5.517c3.84-0.165,8.355-3.184,12.332-6.667l0.175-0.057c0.176,0.418,0.489,0.64,1.227,0.695
		l0.009,0.001c-2.212,2.688-5.198,5.044-7.497,6.655c-1.937,0.473-3.928,0.839-5.95,1.051c1.977-0.243,3.799-0.488,5.482-0.728
		c-1.759,1.204-3.013,1.914-3.013,1.914s2.056-0.876,4.533-2.138c1.834-0.273,3.487-0.544,4.973-0.808
		c-0.833,0.948-1.524,1.678-1.897,1.957l-1.212,0.909c-3.308,0.563-6.1,0.869-6.1,0.869c11.857,2.668,26.383-7.411,26.383-7.411
		s3.262,5.336,12.253,6.916c8.993,1.583,24.802-1.284,24.802-1.284s-10.473,0.396-12.055-0.296c-1.58-0.69-1.58-0.69-1.58-0.69
		s5.93-2.372,10.375-1.187c4.447,1.187,6.917,3.063,6.917,3.063s-3.261-3.262-3.854-3.756c-0.593-0.493-1.186-0.493-0.593-0.493
		s1.68-0.198,5.73,1.68c4.052,1.877,7.411,3.854,7.411,3.854s-6.226-3.261-7.509-5.237c-1.285-1.977-1.977-2.569-1.977-2.569
		s4.348,0.987,5.929,1.877s1.778,0.989,1.778,0.989s-3.953-3.656-5.83-4.546c-1.877-0.889-6.225-3.952-6.225-3.952
		s4.645,1.481,11.758,5.632c7.115,4.15,7.215,5.533,7.215,5.04c0-0.494-8.4-8.202-9.783-9.388c-1.383-1.185-2.371-1.977-2.371-1.977
		s-4.645-3.161,3.754,0.692c2.605,1.194,5.059,2.732,7.203,4.285c0.35,1.158,0.626,2.336,0.801,3.521
		c0.08-0.925,0.016-1.955-0.158-3.051c4.416,3.295,7.373,6.51,7.373,6.51s-4.529-5.771-7.873-8.835
		c-0.371-1.401-0.863-2.851-1.413-4.263c0.825,0.446,1.632,0.957,2.368,1.535c4.15,3.261,5.336,4.645,5.336,4.645
		s-4.149-4.939-5.236-6.026c-0.631-0.63-2.322-2.188-3.941-3.602c-0.285-0.615-0.572-1.208-0.852-1.769
		c7.655,3.273,13.587,9.025,13.587,9.025s-7.313-7.708-12.353-11.066c-1.558-1.039-2.87-1.965-3.94-2.747
		c-0.05-0.064-0.087-0.104-0.11-0.118c-0.033-0.021-0.082-0.043-0.143-0.066l-0.281-0.209c0.063-0.263,0.13-0.516,0.199-0.757
		c2.838,1.509,6.856,3.831,9.117,5.973c3.756,3.557,3.756,3.656,3.756,3.656s-2.471-4.052-6.818-8.695
		c-1.779-1.902-3.145-3.354-4.523-4.49c0.262-0.438,0.521-0.823,0.762-1.177c1.059,0.533,2.121,1.104,3.169,1.714
		c8.498,4.94,12.45,13.636,12.45,13.636s-3.304-10.166-14.411-18.937c-0.185-0.627-0.662-1.172-1.197-1.686
		c2.714,1.361,6.196,3.284,8.493,5.208c4.25,3.558,7.412,12.054,7.412,12.054s-1.285-8.496-5.139-12.549
		c-2.408-2.532-7.904-6.567-11.832-9.264c0.26-0.3,0.503-0.603,0.73-0.905c4,1.512,9.333,3.688,12.125,5.596
		c0.822,2.37,1.25,4.079,1.25,4.079s0.054-1.204-0.094-3.164c3.726,3.476,7.701,9.487,7.701,9.487s-1.623-5.675-7.973-12.051
		c-0.356-2.606-1.047-5.86-2.366-9.244c0.118-0.022,0.235-0.042,0.354-0.061c6.06,2.917,9.689,8.806,9.689,8.806
		s-1.96-4.961-7.586-9.086c4.509-0.477,8.179-0.103,8.179-0.103s-3.409-1.68-8.004-1.038c-0.422,0.059-0.945,0.126-1.546,0.2
		c-0.683-0.436-1.411-0.856-2.188-1.254c-0.344-0.71-0.717-1.419-1.123-2.124c6.405,0.624,8.908,1.695,8.908,1.695
		s-2.815-2.174-8.646-3.755c-0.551-0.15-1.176-0.292-1.855-0.426c-0.648-0.912-1.361-1.806-2.145-2.671
		c8.314-0.814,15.76,1.319,15.76,1.319s-4.102-1.237-5.83-1.778c-1.267-0.399-7.959-0.875-11.455-1.103
		c-0.354-0.335-0.721-0.665-1.1-0.988c8.552-4.997,20.361-4.728,20.361-4.728s-7.412-0.889-11.512-0.296
		c-2.779,0.401-7.893,1.052-10.994,1.461c-0.035-0.339-0.063-0.662-0.082-0.966h2.527c12.55-2.077,15.07-4.053,15.07-4.053
		s-6.868,1.483-10.129,1.483c-1.97,0-5.184,0.036-7.418,0.064c-0.002-0.119-0.006-0.235-0.016-0.343
		c5.942-2.514,13.016-2.784,13.016-2.784s-2.569-0.642-5.78-0.149c-3.212,0.495-4.002,0.792-4.002,0.792s4.2-2.52,8.894-2.619
		c4.693-0.098,7.855,4.199,7.855,4.199s-2.717-6.027-9.387-5.681c-2.482,0.128-5.709,0.77-8.783,1.525l0.137-0.092
		c4.15-2.767,5.93-4.15,5.93-4.15s-3.314,0.249-5.973,0.371c10.268-2.66,14.914-0.717,14.914-0.717s-2.421-2.224-9.635-1.779
		c-3.168,0.195-6.888,0.829-10.065,1.479c-0.63-0.552-1.232-1.191-1.583-1.576c1.446-0.646,3.089-1.244,4.831-1.632
		c5.78-1.284,5.78-1.284,5.78-1.284s0.938-1.63-6.868,0c-0.856,0.18-1.706,0.377-2.538,0.585l1.65-2.166l-4.233-0.205
		c2.187-0.931,4.563-1.712,6.851-2.068c6.67-1.038,8.646-0.494,8.646-0.494s-2.322-2.323-8.35-2.273
		c-6.027,0.049-14.822,1.581-14.822,1.581s3.262-0.593,7.065-2.421c3.805-1.827,7.016-4.397,7.016-4.397s-4.496,2.373-9.19,3.163
		c-4.693,0.79-8.793,1.828-8.793,1.828s2.469-4.2,7.113-4.397s5.237-0.049,5.237-0.049s-2.618-1.877-7.954-1.087
		c-5.336,0.792-10.227,7.313-10.227,7.313s3.804-6.572,6.867-8.103c3.063-1.532,5.139-2.717,5.139-2.717s-5.979,1.334-9.24,3.311
		c-0.215,0.131-0.437,0.271-0.662,0.42c0.051-0.094,0.107-0.186,0.169-0.272c0.691-0.988,7.214-5.533,7.707-5.632
		c0.495-0.1-1.481,0.691-7.212,2.173c-5.732,1.482-8.795,2.076-8.795,2.076s0.493-0.494,2.074-2.273
		c1.582-1.779,7.905-3.261,7.905-3.261s0,0-4.15,0c-4.149,0-9.189,4.348-9.189,4.348l3.458-7.115c0,0-0.494,0.692-4.643,3.854
		c-4.151,3.163-4.646,4.348-4.646,4.348s0.198-0.988,0.494-4.249c0.297-3.261,2.569-7.707,2.569-7.707s-9.793,9.5-10.563,18.36
		l0.014,0.002c0.287-1.357,3.039-14.436,3.039-14.904c0-0.493-3.558,6.127-3.558,6.127s0.495-3.261,0.198-6.422
		c-0.297-3.163-5.041,8.201-5.83,9.09c-0.791,0.89,0.197-6.225,2.271-9.09c2.076-2.866-5.929,7.114-6.62,8.003
		c-0.691,0.89-5.039-8.399-5.039-8.399s0,0.099,0.692,1.779c0.691,1.68,1.58,9.584,1.58,9.584s0-0.098-1.58-2.766
		c-1.582-2.669-9.981-8.004-10.869-8.794c-0.891-0.791,2.865,2.667,6.225,6.125c0.485,0.5,0.994,1.153,1.508,1.919
		c-4.775-0.502-12.18-1.919-12.18-1.919s7.458,6.819,8.597,6.325c-0.494-0.494-10.672-4.15-10.672-4.15s2.075,1.68,3.557,3.656
		s2.273,4.347,2.273,4.347s-3.558-2.766-7.806-3.161c-4.25-0.396-5.041-0.197-5.041-0.197l8.004,4.347c0,0-0.691,1.581-5.534,1.285
		c-4.842-0.297-10.376-1.778-10.376-1.778s5.633,4.348,4.052,4.348c-1.582,0-4.644,0.79-8.993,0
		c-4.347-0.791-4.941-0.791-4.941-0.791s7.116,3.458,6.522,3.854c-0.594,0.396-7.51,1.186-9.091,2.174
		c-1.581,0.988-2.174,1.679-2.174,1.679s5.435-1.58,7.609-1.482c2.173,0.099,2.47,0.198,2.47,0.198s-6.028,4.941-7.213,6.127
		c-1.186,1.186-1.68,1.876-1.68,1.876s4.348-3.556,8.596-4.05c4.25-0.494,4.645-0.494,4.645-0.494s-6.324,4.544-8.498,6.027
		c-2.174,1.481-4.447,3.458-4.447,3.458l10.376-0.691c0,0-9.189,3.854-11.562,4.348c-2.371,0.494-3.261,0.988-3.261,0.988
		l9.348,3.554L87.988,86.17L87.988,86.17z M95.752,86.139l-2.297,0.009l2.566-1.23C95.928,85.327,95.838,85.734,95.752,86.139
		L95.752,86.139z M122.511,125.891c0.717,1.146,1.139,2.12,1.405,2.938c-4.386,2.671-9.597,5.029-15.469,6.224
		C113.233,130.717,118.438,127.771,122.511,125.891L122.511,125.891z M129.134,132.436l0.249-0.018
		c-1.021,1.274-2.32,2.874-3.531,4.317c-1.573,0.632-3.214,1.215-4.904,1.724c1.315-0.71,2.654-1.495,3.801-2.289
		C126.502,134.954,128.01,133.577,129.134,132.436L129.134,132.436z M192.416,95.243c0.045-0.514,0.051-1.044,0.021-1.596
		c0.861,0.021,1.775,0.06,2.746,0.118c0.352,0.335,0.691,0.682,1.017,1.036C194.963,94.944,193.681,95.091,192.416,95.243
		L192.416,95.243z M194.049,97.512c1.063-0.523,2.188-0.949,3.332-1.292c1.372,1.831,2.531,4.06,3.464,6.202
		C198.93,100.767,196.684,99.102,194.049,97.512L194.049,97.512z M191.889,126.476c0.721,1.308,1.401,2.692,1.99,4.127
		c-0.121-0.094-0.242-0.183-0.357-0.263c-3.26-2.271-8.004-5.829-8.004-5.829S188.609,125.042,191.889,126.476L191.889,126.476z
		 M127.325,137.906c3.232-0.651,5.461-1.243,6.988-1.731c-1.487,1.188-2.741,2.114-3.539,2.564c-1.964,1.108-5.982,1.984-9.45,2.579
		C122.35,140.67,124.73,139.311,127.325,137.906L127.325,137.906z"/>
	<path fill-rule="evenodd" clip-rule="evenodd" fill="#C65011" d="M87.471,115.576c1.047-1.727,2.552-3.457,4.305-5.128
		c-0.393,5.181,0.335,8.636,0.335,8.636s0.372-5.404,1.868-10.607c1.632-1.375,3.382-2.689,5.123-3.903
		c-1.099,4.43-1.67,8.074-1.904,11.054c-1.232,1.563-2.467,2.972-3.644,4.074c1.282-1.02,2.471-2.016,3.572-2.978
		c-0.054,1.001-0.067,1.92-0.051,2.763c-1.336,0.994-2.153,1.559-1.974,1.451c0.114-0.068,0.873-0.464,1.985-1.039
		c0.042,1.255,0.154,2.328,0.305,3.246c-0.428,0.426-0.849,0.86-1.258,1.3c0.449-0.295,0.894-0.58,1.336-0.854
		c0.598,3.165,1.653,4.257,1.653,4.257s-0.566-1.883-0.698-4.842c1.718-1.031,3.378-1.926,4.964-2.706
		c-0.076,1.481-0.063,3.008,0.065,4.558c0.184-1.741,0.441-3.392,0.755-4.955c1.932-0.918,3.745-1.671,5.414-2.308
		c-0.611,2.531-0.953,5.092-0.809,7.469c1.31-3.722,2.776-6.55,4.197-8.689c0.395-0.134,0.775-0.265,1.145-0.388
		c-0.439,4.478-0.083,8.693-0.083,9.077c0,0.447,0.216-1.799,4.421-10.629c0.978-0.419,1.685-0.84,2.075-1.333
		c1.959-2.474,1.856-2.577,1.65-3.298c-0.057-0.202-0.354-0.721-0.752-1.368c1.107-2.166,2.38-4.586,3.846-7.293l-3.815-1.135
		c0,0-1.245,1.408-3.068,4.301c-0.167,0.044-0.401,0.11-0.692,0.199l-1.19-3.263c0,0-1.138,1.856-2.542,4.708
		c-2.249,1.054-4.911,2.66-7.047,4.986l-0.108,0.117c3.028-7.471,6.811-11.253,6.811-11.253l-3.227,1.053l-1.805-2.198
		c1.757-0.978,2.867-1.536,2.867-1.536l-0.145-0.351c3.555-1.418,5.61-1.917,5.61-1.917l-3.299-4.743c0,0-2.72,1.353-6.572,3.624
		l-0.514-0.478l4.612-2.733l-12.58-2.269c0,0,5.98-2.268,8.972-3.814c2.083-1.078-2.84-2.405-6.018-3.112
		c2.986-1.571,7.048-2.766,7.048-2.766l-1.605-2.247c3.614,1.522,5.007,2.864,5.007,2.864l2.268-4.434c0,0-9.267-3.106-17.336-3.49
		c5.013-2.278,10.432-3.662,15.382-4.496c4.097,3.399,5.563,5.614,5.563,5.614l5.465-1.031c0,0-2.625-2.35-6.693-5.199
		c0.862-0.101,1.699-0.185,2.503-0.256c0.543,0.9,0.786,1.434,0.786,1.434l5.156,3.815c0,0,3.816-1.856,3.608-2.372
		c-0.042-0.11-0.709-0.841-1.815-1.935c-0.061-0.268-0.165-0.717-0.31-1.303c1.798-0.012,2.848,0.042,2.848,0.042
		s-0.723-2.268-0.927-2.784c-0.144-0.359-0.837-1.267-3.296-2.168c-1.57-5.015-4.134-11.452-7.428-13.607
		c2.859,4.213,4.278,9.037,4.982,12.879c-0.572-0.14-1.2-0.274-1.889-0.403c-0.855-0.16-1.748-0.205-2.646-0.166
		c-4.13-3.111-8.771-5.895-12.512-6.33c3.744,2.253,6.615,4.698,8.766,6.921c-1.874,0.479-3.612,1.166-4.944,1.77
		c-4.075-2.25-8.664-4.237-13.204-5.083c4.37,2.211,7.926,4.345,10.798,6.291c-0.115,0.066-0.178,0.102-0.178,0.102
		s-7.282,3.433-13.665,8.307c-1.724,0.141-3.295,0.475-4.585,1.077c1,0.081,1.958,0.175,2.881,0.28
		c-2.463,2.049-4.666,4.301-6.079,6.627c2.329-2.571,5.12-4.663,8.15-6.367c4.288,0.595,7.681,1.422,10.32,2.282
		c-10.003,1.549-19.273,4.97-23.264,9.758s-0.11,6.411,0.618,6.495c0.729,0.086-4.573-2.38,3.866-6.908
		c8.441-4.526,10.724-4.434,10.724-4.434s-2.887,2.372-8.146,8.559c-5.259,6.186-9.899,9.795-9.899,9.795s5.053-2.474,11.342-7.424
		c2.509-1.973,4.228-3.306,5.542-4.341c-0.928,1.076-2.015,2.26-3.272,3.517c-5.362,5.362-10.415,17.116-10.415,17.116
		s4.744-9.177,10.518-13.508c5.774-4.331,12.476-3.402,12.476-3.402s-0.948,0.66-3.832,2.55l-2.664-0.59
		c-0.734,1.201-1.38,2.402-1.949,3.59c-0.792,0.513-1.653,1.067-2.587,1.669c-8.66,5.567-13.404,14.744-13.404,14.744
		s5.203-6.626,14.312-12.343c-0.416,1.189-0.762,2.354-1.047,3.486c-3.614,3.009-6.871,6.313-8.935,9.681
		c2.841-2.271,5.583-4.277,8.194-6.045c-0.067,0.427-0.127,0.845-0.179,1.256C89.959,110.778,88.32,113.218,87.471,115.576
		L87.471,115.576z M145.109,40.512c-5.549,9.036-7.035,15.635-7.166,19.921c0.352,0.518,0.565,0.805,0.565,0.805l-0.575-0.115
		c0.01,3.611,0.987,5.373,0.987,5.373l-6.187,1.959c0,0,0.637-3.66,2.119-8.525c-1.113-1.585-3.467-6.151-3.15-16.118
		c0.058,4.794,2.24,9.755,4.117,13.151C137.791,51.294,140.797,44.774,145.109,40.512L145.109,40.512z M122.012,44.018
		c6.393,12.373,6.702,17.425,6.702,17.425l2.991-0.722C131.705,60.722,124.589,44.842,122.012,44.018L122.012,44.018z
		 M158.204,42.575c-8.868,11.834-8.042,21.343-8.042,21.756C150.162,64.331,153.358,50.514,158.204,42.575L158.204,42.575z
		 M161.4,45.049c-4.496,6.277-6.414,11.035-7.146,14.415c4.893-6.418,12.418-13.675,11.271-12.146
		c-1.547,2.063-6.806,11.239-6.806,11.239l1.649-1.134c8.25-1.34,10.208-3.815,10.208-3.815s-6.083,8.971-5.052,8.249
		c1.031-0.722,12.785-7.527,12.785-7.527s-6.496,7.424-4.949,6.187c1.547-1.237,7.115-4.64,13.404-4.64s6.289,0.104,6.289,0.104
		s-8.042-0.104-11.135,1.752c-3.094,1.856-5.568,3.609-5.568,3.609s4.742-0.516,10.619,0.618c5.879,1.134,11.962,0.516,10.828,0.722
		c-1.135,0.206-6.496,0.721-11.342,0.824c-4.848,0.104-8.766,1.444-8.766,1.444s5.98,1.237,11.549,2.268
		c5.568,1.032,7.63,2.166,7.63,2.166s-9.485-1.753-13.405-1.546c-3.917,0.206-6.186,0.309-6.186,0.309s3.609,3.918,10.826,3.712
		c7.218-0.207,13.715-0.928,12.992-0.825c-0.723,0.103-9.486,2.062-11.651,3.402c-0.922,0.57-1.563,0.955-1.956,1.207
		c0.244,0.18,0.482,0.361,0.717,0.542c1.865,0.19,5.83,0.54,9.18-0.098c4.33-0.824,6.908-1.753,6.908-1.753
		s-3.969,3.461-9.078,4.808c4.074,1.457,5.777,3.132,5.777,3.132s-3.732-1.632-8.236-2.653l-0.491,0.082
		c5.56,5.429,7.491,10.203,7.491,10.203s-5.914-5.634-11.17-9.533c-2.067,0.417-2.854,0.665-2.854,0.665l8.248,5.671
		c0,0-8.97-4.64-10.619-4.948c-1.65-0.309-7.424-1.238-7.424-1.238s-0.081-0.129-0.256-0.372c-1.561,0.165-2.309,0.145-2.117-0.142
		c0.188-0.28,0.543-0.856,0.877-1.404c-1.126-1.293-2.959-3.17-5.723-5.402c-4.436-3.584-15.51-2.225-17.912-5.214
		c-0.7,0.34-1.231,0.537-1.266,0.369C149.439,67.837,152.224,51.544,161.4,45.049L161.4,45.049z M147.893,40.101
		c-5.463,10.699-5.845,16.261-5.666,18.452c-0.909,1.118-1.872,2.257-2.893,3.406l3.712,1.546c0,0,0.473-0.739,1.402-2.089
		c1.457,1.209,3.149,2.52,3.031,1.986c-0.082-0.367-1.054-1.496-1.793-3.758c0.626-0.883,1.361-1.904,2.205-3.047
		c3.197-4.331,6.497-17.116,6.497-17.116s-2.923,6.838-9.511,15.665C144.684,51.593,145.309,46.704,147.893,40.101L147.893,40.101z
		 M170.061,86.81c4.078,1.823,7.461,4.188,10.266,6.79c-2.633-2.455-6.018-4.488-10.367-5.655c0,0-2.373,10.62-2.27,11.548
		c0.034,0.313,0.761,1,1.707,1.773l-3.149,8.847l5.671,2.269c0,0,3.609,0.309,9.486,2.682c2.498,1.008,5.48,1.01,8.084,0.678
		c0.041,0.163,0.061,0.249,0.061,0.249s0-0.088-0.004-0.255c1.228-0.159,2.369-0.392,3.335-0.625
		c0.274,1.079,0.382,1.705,0.382,1.705s0.012-0.667-0.049-1.788c1.594-0.404,2.626-0.789,2.626-0.789s-0.79,0.158-2.667,0.105
		c-0.066-0.913-0.176-2.037-0.361-3.291c2.363,0.021,4.162-0.217,4.162-0.217s-1.672-0.303-4.404-1.239
		c-0.544-2.943-1.511-6.382-3.229-9.5c2.29-0.443,4.395-1.02,5.973-1.773c1.645,1.83,2.176,2.716,2.176,2.716
		s-0.676-1.216-1.75-2.931c1.028-0.546,1.787-1.182,2.162-1.916c-0.92,0.376-1.836,0.707-2.744,1
		c-2.08-3.221-5.213-7.569-7.979-9.352c-1.221-0.787-2.541-1.48-3.824-2.075c5.669,1.178,12.594,2.822,15.579,4.342
		c-18.869-10.104-24.128-8.66-24.128-8.66v1.865l-2.889,0.198L170.061,86.81L170.061,86.81z M180.352,93.624
		c1.877,1.744,3.495,3.594,4.885,5.459c-0.161,0.01-0.32,0.021-0.48,0.031C183.594,97.181,182.148,95.303,180.352,93.624
		L180.352,93.624z M186.314,100.597c1.994,2.931,3.45,5.837,4.497,8.362c-0.757-0.292-1.571-0.622-2.431-0.999
		c-0.58-2.258-1.447-4.779-2.742-7.271C185.863,100.659,186.09,100.628,186.314,100.597L186.314,100.597z M191.613,111.02
		c0.461,1.274,0.805,2.397,1.059,3.305c-0.872-0.037-1.943-0.118-3.233-0.271c-0.079-0.869-0.214-1.992-0.446-3.287
		C189.875,110.903,190.764,110.98,191.613,111.02L191.613,111.02z M188.521,98.728c-0.035-0.056-0.069-0.109-0.106-0.164
		c-5.051-7.631-9.795-12.58-9.795-12.58s8.559,4.331,13.095,8.661c1.104,1.054,2.013,1.974,2.756,2.762
		C192.416,98.027,190.413,98.449,188.521,98.728L188.521,98.728z M178.486,99.053c-2.303-0.186-3.682-0.489-3.682-0.489l-0.492,0.75
		c-0.98-0.8-1.966-1.653-2.949-2.563l0.76-1.796C172.123,94.956,175.032,96.602,178.486,99.053L178.486,99.053z M177.049,101.426
		c1.249-0.061,2.699-0.147,4.246-0.278c0.381,0.301,0.762,0.609,1.139,0.922c1.474,1.221,2.707,2.986,3.713,4.851
		C183.383,105.567,180.273,103.775,177.049,101.426L177.049,101.426z M189.008,114.004c-0.285-0.943-0.682-2.151-1.193-3.454
		c-0.836-0.183-1.646-0.425-2.389-0.746c-2.613-1.128-5.123-2.291-6.783-3.074l4.41,5.239l-5.361-4.327
		c1.355,2.073,4.115,5.23,8.662,5.977C187.321,113.777,188.205,113.903,189.008,114.004L189.008,114.004z M175.732,125.373
		c-0.691-1.757-1.549-3.293-2.439-4.607c1.507,0.761,2.923,1.48,3.779,1.926c2.578,1.342,6.702,5.672,6.702,5.672
		s0-0.207-1.03-2.371c-1.031-2.166-7.939-7.939-7.939-7.939s0,0,4.64,1.958c4.64,1.959,12.27,2.063,12.27,2.063
		s-4.536,0.617-20.931-9.693l-4.135,0.183c-0.383-0.889-0.608-1.42-0.608-1.42s-12.991-0.516-10.208,4.435
		c2.784,4.948,4.33,10.517,4.33,10.517c7.115,8.971,14.848,9.278,14.848,9.278s-8.248-3.607-10.723-9.176
		c-2.475-5.567-3.402-8.557-3.402-8.557s6.907,4.536,11.031,9.383c4.125,4.845,5.879,6.907,5.879,6.907s-3.506-4.64-6.188-10.311
		c-0.743-1.575-1.504-3.236-2.215-4.815l1.126,0.563C172.758,121.525,175.123,124,175.732,125.373L175.732,125.373z
		 M145.521,124.137c5.465,12.887,13.095,14.33,13.095,14.33s-3.196-1.443-5.774-7.114c-2.578-5.67-3.094-10.516-3.094-10.516
		s5.568,6.495,6.908,10.207c1.341,3.712,1.444,3.917,1.444,3.917s0.104-5.567-2.166-11.753c-2.268-6.187-4.33-8.146-4.948-8.661
		c-0.619-0.516-7.94-5.362-7.94-5.362s-2.165,2.062-1.856,2.784C141.499,112.689,145.521,124.137,145.521,124.137L145.521,124.137z
		 M119.744,115.166c0.634,1.934,1.099,3.772,1.433,5.495c-3.74,4.268-8.316,8.068-12.774,8.113
		c5.639-0.708,9.982-2.433,13.313-4.528c0.764,7.169-0.679,11.467-0.39,10.675c0.395-1.086,3.062-6.124,2.864-11.261l-0.044-1.142
		c0.222-0.178,0.439-0.357,0.65-0.539c0.465,2.938,0.926,6.666,0.875,9.681c-0.098,5.928-0.79,7.014-0.79,7.014
		s3.161-6.321,3.753-11.755c0.594-5.433,0.988-10.37,1.186-8.987s1.877,4.246,1.382,9.778c-0.494,5.532-1.382,8.198-1.086,7.013
		c0.296-1.187,2.766-7.508,4.682-13.371c1.341-5.362,4.846-3.711,3.815,2.785c-1.031,6.495-2.578,9.588-2.578,9.588
		s3.093-6.908,4.434-10.825c1.341-3.92-1.65-15.262-1.65-15.262l-8.121,2.499l-1.262-1.26c0,0-0.423,0.773-1.179,2.012l-5.523,1.7
		L119.744,115.166L119.744,115.166z M123.907,117.297c-0.01-0.178-0.015-0.255-0.015-0.255l0.044,0.214L123.907,117.297
		L123.907,117.297z M98.399,122.167c-0.013-0.924,0.02-1.932,0.122-3.007c1.577-0.813,3.487-1.791,5.258-2.7
		c-0.063,0.414-0.119,0.832-0.169,1.256C101.969,118.996,100.15,120.511,98.399,122.167L98.399,122.167z M98.613,118.322
		c0.144-1.133,0.368-2.33,0.7-3.57c3.007-2.799,5.21-5.234,6.736-7.073c-0.622,1.706-1.238,3.692-1.725,5.875
		C102.39,115.338,100.311,117.016,98.613,118.322L98.613,118.322z M104.966,116.679c0.088-0.326,0.177-0.648,0.269-0.964
		c2.308-1.183,4.096-2.097,4.096-2.097S107.493,114.784,104.966,116.679L104.966,116.679z M106.263,101.874
		c-1.379,2.379-3.338,5.634-5.505,8.839c0.584-1.289,1.302-2.596,2.18-3.9L106.263,101.874L106.263,101.874z M101.125,97.458
		c-0.604,0.401-1.216,0.815-1.831,1.24l1.922-2.542l0.385-0.169C101.438,96.485,101.278,96.977,101.125,97.458L101.125,97.458z"/>
	<path fill-rule="evenodd" clip-rule="evenodd" fill="#E95D0F" d="M133.359,48.712c7.142,6.176,8.231,16.054,8.342,17.296
		c-0.827-3.173-2.684-9.059-5.684-11.986c-4.228-4.125-7.939-7.217-7.939-7.217s0,0,2.268,2.268
		c2.268,2.269,4.021,8.456,4.021,8.971c0,0.515-1.134-1.753-1.958-4.125c-0.826-2.372-11.755-10.105-11.755-10.105
		s2.268,1.649,7.115,7.115c4.846,5.464,3.093,7.217,3.299,7.938c0.207,0.723-0.721-0.824-4.33-3.711
		c-3.609-2.887-14.436-6.29-14.436-6.29s4.949,2.475,10.517,5.567c5.568,3.094,8.248,8.558,8.248,8.558s-0.618-0.721-4.33-2.886
		c-3.712-2.166-8.456-4.537-18.87-3.094c-10.414,1.443-15.467,6.291-15.467,6.291s11.857-6.187,24.954-3.507
		c13.095,2.68,10.104,4.743,10.104,4.743s-9.177-2.372-16.806-1.856c-4.01,0.271-7.136,1.282-9.201,2.181
		c-3.847-0.194-8.224,0.088-8.224,0.088s2.14,0.054,5.919,1.086c-0.368,0.221-0.559,0.357-0.559,0.357s0.529-0.043,1.448-0.105
		c1.257,0.37,2.67,0.843,4.223,1.445l0.69,0.252c-5.926,0.057-7.934,1.5-7.934,1.5s2.372-0.309,7.011,0
		c4.64,0.31,14.642,3.815,14.642,3.815s-7.217-1.752-13.094-2.268c-5.878-0.516-8.043,1.443-8.043,1.443s11.754-0.927,18.044,2.578
		l7.526-0.722l3.507-4.331c0,0-2.362-0.328-5.685-0.722l0.144-0.412c0,0-7.288-1.822-12.725-2.97
		c7.793-0.206,17.972,0.005,21.488,2.248l-0.413-0.309l1.031,0.411l2.887,3.301l6.786,0.193l-0.165,0.58l7.218,2.062l2.578-2.681
		c0,0-0.019-0.354-0.072-0.858l8.248,6.64l-0.133-0.008c0.344,0.239,0.681,0.479,1.015,0.718l2.182,1.757l0.354,0.129
		c4.718,3.647,8.127,7.09,10.579,10.064l-1.097,1.496c-0.528-0.687-1.089-1.387-1.69-2.101l-4.743,3.815
		c0,0,0.103,0.309,6.702,4.021c1.054,0.594,1.955,1.384,2.726,2.293c0.221,0.812,0.415,1.678,0.57,2.593
		c-3.558-3.384-7.421-6.742-7.421-6.742v2.577c1.133,0.881,2.182,1.739,3.153,2.573l-2.401,1.137
		c-0.826-1.264-1.576-2.368-1.576-2.368s0.227,1.092,0.492,2.881l-1.317,0.625c0,0,0.632,0.362,1.554,1.114
		c0.424,3.372,0.807,8.163,0.438,12.896c-1.409-2.997-2.888-7.419-4.054-14.732l-1.24,5.936c-0.076-0.598-0.135-0.936-0.135-0.936
		l-1.615-1.184l-1.471,10.985c-0.355-1.874-0.666-3.891-0.9-6.036l-0.723-1.855l-2.743,0.515c-0.085-0.465-0.144-0.721-0.144-0.721
		l-4.124-1.752c0,0,5.464,15.569-0.825,27.117c4.443-5.418,5.582-12.147,5.664-17.313c0.738,2.207,1.734,5.051,2.78,7.633
		l-0.86,6.437c0.9-1.046,1.656-2.179,2.291-3.362c2.102,3.716,4.457,4.854,4.457,4.854s-1.518-2.929-3.056-8.055
		c1.503-4.287,1.78-8.814,1.704-12.156c0.246,1.06,0.611,2.26,1.146,3.404c0.89,1.904,2.168,3.888,3.31,5.346
		c-0.445,2.33-1.138,4.532-2.176,6.408c1.275-1.678,2.251-3.528,2.997-5.42c0.389,0.434,0.739,0.772,1.024,0.986
		c1.236,0.928,4.125,7.217,4.125,7.217s0.205-1.65-1.135-5.67c-0.585-1.753-1.739-3.038-3.077-5.323
		c1.378-4.869,1.468-9.612,1.403-12.092c0.732,0.933,1.455,2.027,2.086,3.29c0.668,1.336,1.143,2.783,1.479,4.194
		c-0.531,1.653-1.25,3.354-2.199,5.086c0,0,1.227-1.304,2.463-3.84c0.662,3.523,0.527,6.52,0.527,6.52s1.407-3.332,0.682-9.498
		c0.335-1.02,0.636-2.15,0.864-3.391c0.181-0.979,0.307-1.976,0.386-2.973c0.526,0.584,1.006,1.141,1.441,1.67
		c0.547,2.449,0.647,4.295,0.647,4.295s0.349-1.099,0.269-3.146c2.406,3.125,3.133,5.002,3.133,5.002s-1.247-3.852-3.389-7.384
		c-0.31-1.82-0.939-4.061-2.135-6.673c-0.177-2.097-0.494-3.986-0.842-5.45c2.023,3.266,2.551,5.277,2.551,5.277
		s-2.062-9.382-6.082-14.95c-0.391-0.54-0.763-1.042-1.119-1.51c1.51,0.784,3.721,2.131,5.83,4.145
		c3.449,7.494,4.259,15.615,4.259,15.615s0.217-5.044-0.489-10.215c1.684,3.731,2.242,7.534,2.242,7.534s0-0.104-0.206-4.433
		c-0.207-4.331-5.053-13.611-5.053-13.611s0.929,0.618,5.774,8.042c4.846,7.423,2.99,17.322,2.99,17.322s4.434-17.942-0.412-22.374
		c-4.847-4.435-8.25-4.435-8.25-4.435s4.95-1.236,8.354-0.927c3.402,0.309,8.97,5.877,8.97,5.877s-2.165-4.331-6.702-6.702
		c-4.537-2.373-6.908-0.928-6.908-0.928s0,0,2.063-1.134c2.063-1.135,8.043-4.64,8.043-4.64s-0.93,0.412-5.98,2.371
		c-5.054,1.959-5.363,0.928-5.363,0.928l1.855-1.752l9.385-6.702c0,0-5.465,1.855-7.527,2.681c-2.063,0.825-5.053,0.309-5.053,0.309
		l8.042-7.424c0,0-1.339,0.827-5.877,3.404c-4.536,2.577-9.177,3.298-9.177,3.298s4.331-6.391,9.074-8.661
		c4.743-2.267,9.898-0.516,9.898-0.516s-3.094-3.712-11.137-0.515c-8.042,3.196-9.691,5.567-9.691,5.567s0.825-1.34,1.855-3.196
		c1.031-1.856,5.877-9.28,5.877-9.28s0,0.824-7.113,7.217c-7.115,6.393-10.002,4.124-10.002,4.124s0.412-0.516,4.434-4.124
		c4.021-3.609,17.632-6.393,17.632-6.393s-19.489,2.681-29.593,9.177c-0.104-0.825,5.361-9.796,5.361-9.796s-5.258,6.599-5.67,7.218
		c-0.413,0.619-5.26-12.167-5.26-12.167s3.609,14.435,3.3,15.982c-0.31,1.546,0,0-1.753-4.331s-9.589-13.198-9.589-13.198
		s8.25,11.754,7.836,16.188c-0.013,0.147-0.024,0.29-0.032,0.431C144.318,58.873,139.596,51.831,133.359,48.712L133.359,48.712z
		 M93.922,74.025c2.28,0.982,4.226,1.91,5.888,2.778c-0.857-0.041-1.692-0.042-2.486,0.006c-6.908,0.413-11.239,4.64-11.239,4.64
		s0.928-0.413,3.816-1.959c1.294-0.693,4.519-0.91,8.166-0.64c-0.907,0.471-1.815,0.996-2.721,1.583
		c-3.25,0.066-5.55,0.604-5.55,0.604s1.151,0,4.197,0.325c-1.17,0.848-2.329,1.807-3.459,2.887
		c-2.986,0.517-5.068,1.222-5.068,1.222s1.595-0.432,4.376-0.542c-0.967,0.978-1.915,2.046-2.829,3.222
		c1.323-1.241,2.723-2.316,4.143-3.248c2.472,0.001,5.649,0.273,9.328,1.188c-0.854,0.127-1.741,0.265-2.646,0.411
		c-5.775,0.928-10.724,4.64-10.724,4.64s1.547-0.721,7.733-1.34c6.187-0.619,7.837,1.031,7.837,1.031s-2.989,0.413-8.454,1.65
		c-5.465,1.238-10.105,5.877-10.105,5.877s4.242-2.81,13.522-3.982c-1.771,2.017-3.558,5.083-4.862,9.755
		c3.293-5.359,4.368-7.479,6.012-8.805c-1.658,2.941-2.671,6.977-2.299,12.517c1.477-5.84,4.491-10.383,6.878-12.942
		c0.099,0.856,0.211,1.691,0.333,2.509c-0.602,1.213-1.205,2.609-1.748,4.144c-1.753,4.95-0.413,15.364-0.413,15.364
		s-1.754-7.131,2.896-15.33c0.408,2.003,0.865,3.85,1.332,5.519c-1.005,6.553,0.927,15.483,0.927,15.483s-0.663-4.355,0.706-10.365
		c1.156,3.205,2.079,5.003,2.079,5.003s-0.764-3.71-1.298-7.87c0.509-1.597,1.167-3.27,2.016-4.979
		c2.974,13.092,1.034,18.211,1.034,18.211s2.166-3.402,2.063-10.312c-0.069-4.618-0.69-9.004-1.096-11.407
		c0.879-1.356,1.891-2.716,3.056-4.06l-2.578-2.578c0,0-2.862,2.806-4.943,6.928c0.11-1.472,0.222-3.047,0.329-4.574
		c0.777-0.863,1.639-1.727,2.595-2.581c0.123,0.007,0.245,0.012,0.369,0.021l1.547-0.104l0.81-2.131
		c0.437-0.324,0.888-0.644,1.355-0.962l-0.825-0.43l1.444-3.797c0,0-0.989-0.216-2.178-0.481l0.631-1.065l-3.041-1.967l2.01-2.261
		l-0.129-0.063l1.675-1.071l-0.116-0.038l3.106,0.244l1.031-4.537c0,0-6.766-1.269-14.918,1.275
		C99.589,75.084,95.629,73.749,93.922,74.025L93.922,74.025z M105.052,79.935c1.215,0.853,2.1,1.603,2.742,2.235
		c-1.854-0.427-4.566-0.995-7.583-1.442l-0.226-0.032c1.421-0.472,2.703-0.812,3.765-1.057
		C104.191,79.73,104.625,79.828,105.052,79.935L105.052,79.935z M92.73,83.933c1.508-0.874,3.013-1.597,4.449-2.193l0.144,0.02
		c2.791,0.363,5.32,1.214,7.151,1.978c-0.188,0.202-0.389,0.438-0.585,0.699c-1.276-0.197-2.955-0.411-5.122-0.614
		C96.695,83.627,94.613,83.718,92.73,83.933L92.73,83.933z M120.007,106.094c-0.146,0.733-0.284,1.449-0.411,2.152
		c0.89,0.93,1.61,1.743,1.649,1.973c0.103,0.617,1.031,8.453,1.031,13.197c0,4.743-1.959,10.724-1.959,10.724
		s1.856-6.084-0.929-15.26l-0.853-3.653c-1.303,10.906-0.178,16.335-0.178,16.335s-1.34-6.907-1.547-14.642
		c-0.205-7.733-0.205-9.898-0.205-9.898s-1.443,8.249-1.856,11.858c-0.413,3.608,0.309,6.806,0.309,6.806s-2.062-7.114-1.546-11.55
		c0.515-4.433,0.103-10.414,0.103-10.414l0.722-3.505C114.336,100.216,120.213,106.299,120.007,106.094L120.007,106.094z
		 M124.982,114.93c-0.801,8.659,1.212,15.704,1.212,15.704s-2.784-8.456-3.3-11.55c-0.516-3.092-1.444-7.113-1.444-7.733
		c0-0.617,0.311-3.71,0.311-3.71l2.165,0.412l0.237,1.014l2.959-1.632c0,0,1.752,7.836,1.545,7.526
		c-0.824,11.344,2.27,19.488,2.27,19.488s-3.506-8.97-4.537-13.403C125.859,118.72,125.347,116.508,124.982,114.93L124.982,114.93z
		 M139.714,117.753c0.686,5.412-0.581,10.767-0.581,10.767s2.785-4.331,2.887-8.042c0.088-3.18-0.05-7.189-0.092-8.601
		c0.784,4.774,0.858,11.066-1.455,18.188c4.332-7.113,3.506-17.218,3.506-17.218l0.42-3.109l0.715,13.214
		c-0.31,7.94-1.961,11.857-1.961,11.857s2.27-2.475,3.815-10.723c0.728-3.878,1.044-8.097,1.175-11.479
		c2.997,11.454-0.865,20.966-0.865,20.966s3.918-12.889,3.814-18.456c-0.104-5.57-1.236-7.94-1.236-7.94l-1.633-0.336
		c-0.008-0.513-0.018-0.799-0.018-0.799l-4.123-2.166l0.049,0.94l-5.206-2.383c0,0,0.2,0.352,0.505,1.014l-0.711-0.806l0.183,2.88
		l-2.76-5.562l-0.31,2.887l1.032,7.27c3.506,10.311,0.567,15.002,0.567,15.002S138.901,122.029,139.714,117.753L139.714,117.753z
		 M134.725,116.772c1.41,2.417,2.191,4.271,2.191,4.271s-1.134-1.186-0.773-4.691c0.361-3.506,0.567-6.96,0.567-6.96
		s-0.735-0.248-1.526-0.486c-0.039-1.402-0.123-2.297-0.123-2.297l-3.815,3.299c1.96,10.209-1.031,18.559-1.031,18.559
		s2.784-4.328,4.124-9.795C134.492,118.051,134.62,117.413,134.725,116.772L134.725,116.772z M129.598,107.33
		c-0.827,9.796,0.412,15.57,0.412,15.57s0.206-8.868,0.722-11.034c0.515-2.164,0.103-4.537,0.103-4.537H129.598L129.598,107.33z
		 M174.71,104.955c0.108,1.63,0.069,3.373-0.179,5.203c-0.455-2.258-1.186-4.804-2.316-7.626
		C173.126,103.372,173.957,104.182,174.71,104.955L174.71,104.955z M176.334,104.217l0.002-0.276
		c0.072,0.175,0.143,0.351,0.209,0.527C176.477,104.383,176.405,104.3,176.334,104.217L176.334,104.217z"/>
	<path fill-rule="evenodd" clip-rule="evenodd" fill="#EE8027" d="M141.085,114.356c4.623,14.816-2.023,22.673-2.023,22.673
		s4.845-5.57,5.877-11.342c1.031-5.774,0.824-7.321,0.824-7.321s2.269,7.426,0.826,11.961c-1.443,4.536-1.443,4.536-1.443,4.536
		s2.063-4.948,3.608-9.485s1.546-5.155,1.546-5.155s0.517,4.021-0.309,7.319c-0.824,3.3-0.824,3.506-0.824,3.506
		s3.814-5.67,4.021-8.558c0.206-2.886,0.206-2.886,0.206-2.886s1.959,0.618,1.031,6.392c-0.928,5.775-2.783,8.867-1.443,6.6
		c1.34-2.269,4.021-16.497,4.537-12.27c0.516,4.227-0.31,9.175-0.104,8.66c0.206-0.516,1.547-2.371,1.959-7.63
		s-0.207-7.114-0.104-6.599s4.332,3.196,3.609,9.279c-0.722,6.084-1.237,7.218-1.237,7.218s1.649-4.847,2.269-8.249
		c0.618-3.401,0.206-5.773,0.206-5.773s1.753,3.403,2.887,7.424c1.134,4.021,2.372,5.876,2.372,5.876s-0.104-2.163-0.516-5.256
		c-0.412-3.095-1.546-6.703-0.929-8.044c0.619-1.341,0.619-1.855,0.619-1.855s4.021,0.309,3.815,5.979
		c-0.206,5.67-0.516,7.63-0.516,7.63s1.855-6.289,1.649-9.897s-1.34-1.341-1.237-5.672c0.104-4.331-0.103-6.805-0.103-6.805
		s-1.032,2.939-1.187,5.464c-0.154,2.527,0.825,4.124,0.825,4.124s-2.32-1.751-3.351-3.247c-1.032-1.496-2.012-2.939-2.012-2.939
		s1.495,1.599,0.619,5.517c-0.877,3.917-0.104,6.649-0.104,6.649s-2.887-6.289-2.99-8.506c-0.103-2.217-0.103-2.217-0.103-2.217
		s-0.671,3.662-0.825,5.981c-0.154,2.32,0,2.836-0.051,2.372c-0.053-0.464-1.857-4.846-3.662-6.136
		c-1.803-1.289-2.474-1.805-2.474-1.805s1.393,3.507,1.444,6.342c0.051,2.836,0,2.939,0,2.939s-1.289-6.032-1.959-4.383
		c-0.671,1.648-1.084,4.588-1.084,4.588l-3.041-7.321c0,0,0.361,5.104,0,7.167s-0.361,2.063-0.361,2.063s-2.011-9.59-2.217-8.815
		c-0.205,0.771-1.907,10.104-1.752,9.588c0.153-0.516-0.877-5.517-1.547-7.011c-0.671-1.495-0.979-2.319-0.979-2.319
		s-0.62,6.959-1.187,9.021c-0.567,2.063-0.825,2.835-0.825,2.372c0-0.459,0.351-7.848-2.317-12.104
		c-0.267-1.516-0.604-2.491-0.604-2.491l0.258,6.083c0,0-0.979-5.722-2.475-6.392c3.558,8.558,0.773,16.393,0.773,16.393
		s1.444-2.938,2.165-7.423C141.488,118.018,141.336,115.938,141.085,114.356L141.085,114.356z M170.27,67.425
		c6.496-5.568,14.951-4.022,14.951-4.022s-5.568-1.649-9.488-0.516c-3.917,1.134-7.629,2.785-7.629,2.785l2.682-0.412L170.27,67.425
		L170.27,67.425z M169.959,74.953c5.773,10.001,6.908,8.454,9.693,14.641c2.783,6.186,1.959,9.691,1.959,9.691
		s0.618-6.701-0.928-10.517c-1.548-3.815-3.816-7.011-3.816-7.011s6.6,2.99,8.146,6.599c1.547,3.608,1.547,4.743,1.547,4.743
		s0-5.773-2.476-8.146c-2.474-2.372-5.671-4.434-5.671-4.434s-0.824,0.928-3.918-2.166c-3.094-3.093-6.805-6.083-6.805-6.083
		L169.959,74.953L169.959,74.953z M156.916,63.764c5.826-5.773,20.158-7.372,20.158-7.372s-12.477,1.856-16.909,3.815
		c-4.435,1.959-5.208,2.938-4.897,2.733c0.309-0.207,4.021-1.65,4.021-1.65S156.969,63.713,156.916,63.764L156.916,63.764z
		 M155.163,50.876c-4.175,12.58-2.886,14.177-2.886,14.177s0.205-4.949,0.566-4.125c0.36,0.826,1.598,5.31,1.547,4.95
		c-0.051-0.36-1.393-3.763,0.207-9.537c1.598-5.774,3.298-8.146,3.298-8.146l-2.474,3.506L155.163,50.876L155.163,50.876z
		 M149.904,61.909c0.877-4.434-0.359-13.095-0.359-13.095s2.01,7.217,1.855,10.26c-0.154,3.042-0.412,6.083-0.412,6.083
		S151.555,60.826,149.904,61.909L149.904,61.909z M137.222,61.497c0.876-3.506-0.516-8.919-0.516-8.919s2.785,7.835,3.093,9.692
		c0.311,1.855,0.311,2.681,0.311,2.423c0-0.257-1.857-5.671-1.857-5.413S137.222,61.497,137.222,61.497L137.222,61.497z
		 M136.964,51.186c6.341,9.641,5.001,15.672,5.001,15.672s0.876-2.68,0.876-4.898c0-2.217-0.362-3.66-0.362-3.66l5.106,6.29
		c0,0-1.394-3.403-5.621-8.868c-4.228-5.464-7.527-8.145-7.527-8.145S137.119,50.876,136.964,51.186L136.964,51.186z
		 M135.108,55.258c1.083,4.021,0.361,6.909,0.361,6.909s-2.062-4.228-3.661-6.857c-1.598-2.63-2.423-3.712-2.423-3.712
		s3.454,7.786,3.454,8.868s0,1.134,0,1.134s-1.494-3.557-2.422-5.671c-0.597-1.359-1.577-3.891-2.722-5.963
		c0.862,7.153,4.681,12.923,4.681,12.923l-1.65,0.619c0,0-2.893-4.431-3.176-13.801c-0.595-1.042-1.23-1.946-1.876-2.491
		c-1.959-1.649-1.959-1.649-1.959-1.649s1.598,0.509,3.813,2.437l0.002-0.272c0.002,0.094,0.006,0.188,0.009,0.281
		c1.016,0.886,2.161,2.068,3.341,3.636c3.763,5.002,3.816,6.342,3.816,6.084s-0.053-2.217-1.444-5.104
		c-1.391-2.887-1.598-3.145-1.598-3.145S135.366,53.454,135.108,55.258L135.108,55.258z M102.268,59.383
		c8.746-0.375,14.809,2.152,18.616,4.664c0.536,0.864,0.964,1.656,1.309,2.36c-1.058-0.484-2.259-0.938-3.595-1.299
		c-2.753-2.586-6.997-5.193-13.082-5.521c5.071,0.894,8.484,2.919,10.75,5.018c-3.399-0.552-7.48-0.444-12.142,1.066
		c5.234-1.444,9.754-0.976,13.277,0.091c1.102,1.235,1.836,2.43,2.31,3.363c-4.354-1.089-13.422-2.9-18.318-0.567
		c8.608-1.907,19.383,2.629,19.383,2.629l0.34-0.339l1.619-0.332c0,0-0.771-1.666-2.508-3.7c1.077,0.481,2.006,0.991,2.772,1.464
		c0.406,1.099,0.509,1.722,0.509,1.722l1.357-0.434c0.463,0.36,0.705,0.588,0.705,0.588l2.114-0.155c0,0-0.549-0.558-1.597-1.325
		l3.504,0.501c0,0-2.482-2.891-7.116-5.564c-3.064-4.221-7.77-9.604-12.887-11.45c4.778,3.644,7.935,7.094,10.013,9.97
		C115.157,60.11,109.319,58.628,102.268,59.383L102.268,59.383z M125.25,67.761c0.317,0.357,0.529,0.625,0.641,0.774
		c-0.097-0.069-0.196-0.138-0.3-0.209C125.492,68.159,125.376,67.97,125.25,67.761L125.25,67.761z M118.663,49.897
		c6.805,8.765,8.248,15.672,8.248,15.672s0.516-0.413,0.414-3.093c-0.104-2.68-0.207-3.093-0.207-3.093l2.681,6.29
		C129.798,65.673,130.726,57.217,118.663,49.897L118.663,49.897z M99.381,72.013c7.836-1.34,12.94,0.361,12.94,0.361l1.702-0.722
		C114.023,71.652,102.269,69.694,99.381,72.013L99.381,72.013z M89.276,83.82c0.683,0.038,1.338,0.078,1.97,0.122
		c-0.43,0.445-0.864,0.918-1.299,1.424c0.556-0.492,1.125-0.957,1.7-1.396c6.515,0.472,10.287,1.253,12.374,1.868
		c-3.998,0.43-9.29,1.602-14.847,4.53c6.72-3.207,13.107-3.685,17.16-3.551c-0.206,0.542-0.376,1.074-0.516,1.59
		c-3.18,0.024-7.531,0.487-10.458,2.527c2.265-1.178,6.458-1.489,9.543-1.544c-0.496,0.538-0.958,1.063-1.385,1.576
		c-5.294,0.577-13.12,2.129-17.747,6.31c5.355-3.356,12.663-4.537,16.65-4.945c-4.006,5.219-4.597,8.764-4.638,9.173
		c-0.051,0.515,0.259-0.412,1.753-2.475c1.495-2.062,4.176-4.125,4.176-4.125s-0.876,1.031-3.351,3.969
		c-2.475,2.939-4.021,8.559-4.021,8.559s0,0,0.258-3.093c0.217-2.61,0.031-4.962,5.849-12.011c1.452-0.148,2.46-0.194,2.766-0.206
		c-0.087,1.508,0.047,2.471,0.047,2.471s0.171-1.025,0.585-2.686l3.229-1.282c0,0-1.127-0.007-2.923,0.11
		c0.116-0.426,0.244-0.879,0.385-1.354c1.313,0.011,2.178,0.058,2.178,0.058l1.186-0.826c0,0-1.241-0.163-3.065-0.2
		c0.159-0.499,0.331-1.015,0.516-1.548c2.115,0.131,3.374,0.408,3.374,0.408l0.412-1.495c0,0-1.203-0.172-3.243-0.161l0.202-0.148
		l-0.218-0.047c0.869-2.285,1.989-4.771,3.414-7.17c0,0-2.367,2.914-4.279,6.988c-2.696-0.553-9.842-1.91-14.623-1.819
		c5.243-3.773,10.705-5.427,10.705-5.427l2.731-0.516c0,0-6.595-1.415-14.084,5.964C90.777,83.491,89.934,83.609,89.276,83.82
		L89.276,83.82z M105.338,90.795c0.059-0.446,0.138-0.919,0.243-1.413c-0.194,0.001-0.395,0.003-0.601,0.006
		c-0.487,0.545-0.944,1.067-1.376,1.567C104.221,90.89,104.802,90.837,105.338,90.795L105.338,90.795z M108.815,95.317
		c-6.083,7.991-6.083,14.796-6.083,14.796s-0.361-7.27,1.03-10.775c1.393-3.505,3.61-7.836,3.61-7.836s-2.578,6.703-3.094,8.404
		c-0.516,1.702-0.669,2.268-0.669,2.268S107.218,95.059,108.815,95.317L108.815,95.317z M106.496,102.535
		c-2.01,7.836,1.341,18.817,1.341,18.817s-2.732-7.784-2.577-12.166C105.414,104.802,106.496,102.535,106.496,102.535
		L106.496,102.535z M107.373,103.36c0.258,7.681,3.093,12.424,3.042,12.063c-0.052-0.36-1.186-4.124-0.774-6.444
		c0.413-2.32,0.413-2.887,0.413-2.887s2.218,3.763,2.165,7.681c-0.051,3.919-0.206,4.435-0.206,4.435s0.773-6.857,0.876-9.229
		c0.103-2.371-1.186-6.238-1.186-6.238l0.671,6.342c0,0-2.835-6.136-2.784-5.156c0.051,0.98-0.515,6.548-0.515,6.135
		S107.373,103.72,107.373,103.36L107.373,103.36z M119.178,114.547c3.868,6.702,2.527,15.004,2.527,15.004s0.979-7.373,0.979-10.054
		s-0.463-4.279-0.463-4.279l1.083,11.806c0,0,0.464-5.877,1.495-7.579c1.032-1.701,1.135-2.835,1.135-2.835s-1.29,2.217-1.754,3.093
		c-0.463,0.877-0.566,1.084-0.566,1.084s-2.115-10.157-2.115-8.56c0,1.599,0.413,8.817,0.413,8.817S120.623,115.114,119.178,114.547
		L119.178,114.547z M129.593,115.012c-1.598,6.702-2.577,14.486-2.577,14.486s0.258-5.722,0.258-8.3s0-6.084,0-6.084l0.463,4.537
		L129.593,115.012L129.593,115.012z M133.461,114.238c-0.929,8.043-4.485,12.168-4.485,12.168s4.072-6.239,5-8.044
		c0.928-1.804,1.546,5.878,1.546,5.878s-0.309-5.362-0.464-6.754c-0.154-1.392-0.207-1.443-0.207-1.443s-1.648,2.887-1.597,2.577
		C133.305,118.312,133.461,114.238,133.461,114.238L133.461,114.238z"/>
	<path fill-rule="evenodd" clip-rule="evenodd" fill="#8B0E13" d="M128.905,69.079c-4.33-1.186-13.405,4.331-11.857,3.712
		c1.547-0.62,4.124-0.98,4.124-0.98s-1.289-0.258-5.722,3.146c-4.433,3.403-5.723,7.526-5.723,7.526s4.949-4.433,4.691-4.278
		c-0.258,0.155-4.537,4.897-5.567,8.197c-1.031,3.299-1.6,4.485-1.392,4.125c0.206-0.361,3.196-5.104,2.628-3.815
		c-0.566,1.289-1.855,4.742-1.958,6.805c-0.103,2.062,0.259,3.97,0.259,3.97s1.34-6.96,1.34-4.331s0.051,4.331-0.104,6.547
		c-0.154,2.216,0.258,4.744,0.413,3.661c0.155-1.083,0-7.374,0.619-5.929c0.618,1.443,0.517,0.567,1.341,4.691
		c0.824,4.125,1.907,11.703,2.319,8.302c0.412-3.404,0.154-6.29,0.361-5.724c0.206,0.567,1.805,4.021,2.01,5.724
		c0.207,1.701,0.053,4.227,0,3.969c-0.051-0.258,0.825-2.733,0.825-4.125s0-1.959,0-1.959s0.928,0.67,1.341,2.887
		c0.412,2.219,0.928,4.435,0.825,3.713c-0.102-0.721,0.413-5.311,0.413-5.311s0.259,0.67,0.979,3.094
		c0.723,2.423,0.052,7.012,0.052,7.012s0.929-2.577,1.186-4.691c0.258-2.114,0.309-3.506,0.309-3.506s0.877,1.496,1.393,3.249
		c0.515,1.753,0.515,2.888,0.515,2.63s0.877-2.991,0.877-3.919s0-1.444,0-1.444s1.186,1.857,1.134,3.248
		c-0.052,1.393-0.361,2.114-0.052,1.393c0.31-0.723,0.928-3.712,1.186-3.352c0.258,0.362,0.722,2.629,0.826,2.012
		c0.104-0.618,0-5.827,0.773-3.662c0.773,2.166,0.104,8.507,0.361,7.992c0.257-0.516,2.165-7.683,2.113-7.269
		c-0.051,0.412-0.516,2.731-0.103,2.32c0.413-0.413,1.185-1.754,2.113-2.836c0.929-1.083,1.444-2.784,1.444-1.805
		c0,0.979-0.207,2.424,0.876,0.62c1.083-1.806,1.856-7.167,1.856-7.167s1.907,4.691,2.681,7.167
		c0.774,2.475,1.393,5.413,1.393,5.155s-0.207-6.754,0.309-5.724c0.516,1.031,0.928,6.807,1.135,6.341
		c0.206-0.463,0.104-6.495,0.98-4.433c0.875,2.062,3.041,6.805,3.041,6.805l-0.516-5.619c0,0,0.361-0.361,1.134,1.083
		c0.772,1.443,1.031,5.877,1.031,5.877l1.34-5.774c0,0,1.444,1.753,1.806,4.228c0.36,2.475,0.36,2.731,0.36,2.731
		s0.154-7.732,0.464-6.648c0.31,1.081,1.754,5.464,1.805,4.948s-0.104-5.413-0.104-5.413s1.187,0.773,2.166,3.3
		c0.979,2.524,1.289,5.618,1.289,5.618s0.928-4.175,0.928-6.341c0-2.165-0.051-2.268-0.051-2.268s1.648,0.566,1.804,2.525
		c0.154,1.959-0.154,3.043,0.154,2.011c0.31-1.03,0.103-4.33-0.052-5.465c-0.154-1.133-0.051-1.133-0.051-1.133
		s1.546,0.154,1.598,3.401c0.052,3.248,0.052,3.558,0.052,3.558s0.567-3.712,1.083-5.413c0.516-1.702,0.824-2.681,0.824-2.681
		s0.154,1.805,0.516,3.403c0.361,1.599,0.309,2.011,0.361,1.753c0.051-0.258,0.412-1.65,1.236-4.021
		c0.825-2.373,0.311-5.209,0.671-4.281c0.361,0.929,0.722,4.744,0.876,4.332c0.154-0.413,0.928-4.279,1.342-6.033
		c0.412-1.752,0.256-2.216,0.412-1.908c0.154,0.311,1.134,1.031,1.082,3.146c-0.051,2.113-0.258,4.949-0.207,4.175
		c0.053-0.773,1.856-5.206,1.135-7.579c-0.722-2.371-0.773-2.732-0.773-2.732s2.113,5.671,2.166,4.332
		c0.051-1.341,0.412-4.125-0.773-6.548c-1.187-2.422-0.619-4.537-0.619-4.537s0.877,0.104,1.598,2.682
		c0.723,2.578,0.051,4.33,0.051,4.33s1.188-2.424,0.568-5.464c-0.619-3.043-0.773-1.908-1.186-3.764
		c-0.412-1.856-0.412-3.248-0.412-3.248s1.804,1.753,1.959,3.866c0.154,2.114,0.154,2.269,0.154,2.269s0.824-3.402-0.722-5.773
		c-1.547-2.373-2.888-3.404-2.888-3.404l2.268,1.031c0,0-2.473-1.597-3.092-2.629c-0.619-1.031-2.319-2.733-1.908-2.526
		c0.414,0.207,0.414,2.372,3.248,2.938c2.836,0.567,2.836,0.567,2.836,0.567s-3.711-1.341-4.227-2.475
		c-0.516-1.134-1.701-3.196-1.908-3.505c-0.206-0.309,1.186-6.135-4.795-9.435c-5.98-3.299-8.559-2.68-12.889-1.753
		c-4.33,0.928-7.32,0.928-8.765,1.959c-1.443,1.031-0.618,2.474-2.475,1.649C137.515,71.347,135.143,67.325,128.905,69.079
		L128.905,69.079z"/>
	<path fill-rule="evenodd" clip-rule="evenodd" fill="#650D0E" d="M118.026,74.129c-2.682,1.753-2.991,2.939-2.991,2.939
		s1.495-0.67,1.237-0.464c-0.258,0.207-0.928,1.083-3.351,4.794c-2.423,3.712-3.763,5.104-2.526,4.641
		c1.237-0.464,1.753-1.393,1.187-0.413c-0.567,0.98-2.115,5.877-2.115,5.877l1.032-1.186c0,0,0.207,1.65,0.412,3.3
		c0.207,1.649,0.464,2.371,0.361,2.062c-0.104-0.311-0.516-2.166,0-0.826c0.515,1.341,1.752,11.342,2.114,9.848
		c0.36-1.496,0.412-4.228,0.67-3.763c0.258,0.463,1.185,3.195,1.134,2.525c-0.052-0.67,0-0.721,0-0.721s0.67,3.918,0.773,3.557
		c0.103-0.361,0.67-2.01,0.67-2.01s2.577,4.227,2.834,3.403c0.258-0.825,0.361-1.186,0.361-1.186s1.392,3.505,1.289,2.99
		c-0.103-0.515-0.103-1.186-0.103-1.186s1.495,1.083,1.907,2.114c0.413,1.031,0.413,1.392,0.413,1.031
		c0-0.36-0.258-3.609-0.103-3.299c0.154,0.31,1.392,4.125,1.34,3.557c-0.053-0.567,0-1.805,0-1.805l1.185,1.65l0.723-1.339
		c0,0,1.134-1.135,0.67,0.927c-0.464,2.062-0.825,3.093-0.567,2.578s2.681-3.404,2.681-3.404s1.133-0.255,1.133,1.135
		c0,1.392-0.102,1.649-0.102,1.649l1.289-2.216c0,0,1.495,1.444,1.495,0.979c0-0.463-1.135-0.773-0.104-1.597
		c1.031-0.825,1.546-2.114,1.804-1.753s0.258,0.413,0.258,0.413s0.31-1.804,1.238-4.331c0.928-2.526,0-8.867,0.516-7.526
		c0.516,1.34,1.083,4.433,1.134,4.125c0.051-0.311,0.154-3.404,0.412-2.733c0.258,0.671,1.547,8.249,1.959,7.32
		c0.412-0.928,0.566-1.494,0.566-0.463s-0.463,6.599,0.258,4.949c0.721-1.65,0.721-3.608,1.237-2.525
		c0.516,1.082,1.496,2.475,1.496,2.732c0,0.258-0.309-1.445,0.154-0.826c0.465,0.619,1.393,3.094,1.547,2.475
		c0.156-0.618-0.205-1.288,0.258-0.928c0.465,0.361,3.094,2.732,2.836,2.165c-0.258-0.566-0.207-1.185-0.207-1.185l2.733,2.269
		l0.154-1.857c0,0-0.722-3.196,0.104-1.65c0.824,1.547,0.67,3.712,1.133,2.939s0.619-2.165,0.98-1.649
		c0.36,0.516,1.186,0.618,0.979,1.134c-0.205,0.516-2.318,1.65,0,0.412c2.32-1.236,1.599-2.732,2.578-2.319
		c0.979,0.412,1.443,1.649,1.805,1.134c0.36-0.515,0.154-1.494,0.824-1.392c0.67,0.103,1.186-1.393,1.856-0.206
		c0.671,1.186,0.464,1.855,0.722,1.391c0.258-0.463,0.258-1.803,1.083-2.475c0.825-0.67,1.03-1.701,1.134-0.979
		c0.104,0.722-0.258,2.526-0.104,2.217c0.156-0.309,0.825-2.423,0.979-1.908c0.155,0.516,0.155,3.042,0.155,3.042
		s0.31-3.661,1.236-5.155c0.929-1.496,1.187-3.816,1.29-2.836c0.104,0.979,0,3.094,0.104,2.836c0.103-0.258,0.412-3.507,0.618-4.64
		c0.207-1.134,0.361-2.526,0.67-3.3c0.31-0.773,0.258-1.65,0.412-1.083c0.156,0.567,0,4.176,0,4.176s0.672-2.888,0.414-6.29
		c-0.258-3.402-1.548-7.373-1.084-6.444c0.465,0.928,1.237,4.485,1.237,4.485s0-3.505-0.516-5.414
		c-0.515-1.907-3.351-7.63-3.351-7.63s1.082,1.134,0.979,0.723c-0.103-0.413,0-2.115-1.7-3.559
		c-1.702-1.443-7.423-4.794-11.909-5.773c-4.486-0.979-8.248-0.052-10.981,1.186c-2.732,1.237-4.589,3.763-4.589,3.763
		s0.773-8.352-7.422-7.63C122.768,70.417,118.026,74.129,118.026,74.129L118.026,74.129z"/>
	<path fill-rule="evenodd" clip-rule="evenodd" fill="#DD784A" d="M113.646,74.543c-1.031,2.062-1.031,2.448-2.784,4.794
		c-1.753,2.346-2.088,4.33-2.887,4.227c-0.799-0.103-2.475-1.237-3.376-1.984c-0.903-0.748-2.037-3.455-1.702-4.228
		c0.335-0.774,1.392-5.929,3.351-6.753c1.958-0.826,2.732-1.883,4.769-1.134C113.054,70.213,113.673,71.321,113.646,74.543
		L113.646,74.543z"/>
	<path fill-rule="evenodd" clip-rule="evenodd" fill="#B1B3B4" d="M136.513,75.291c1.032,4.021-0.516,17.529-0.722,20.106
		c-0.206,2.577,0.722,12.27-2.681,13.713c-3.402,1.443-7.733,1.443-12.579-2.578c-4.847-4.021-10.105-11.342-9.59-15.673
		c0.379-3.177,2.534-11.905,10.576-16.816C126.375,71.077,134.56,67.68,136.513,75.291L136.513,75.291z M137.75,83.179
		c-0.677,6.471,0.412,15.929,2.371,20.364c5.808,13.145,25.228,8.79,28.046-1.546c2.164-7.94,0.934-18.802-6.084-24.128
		C154.324,71.979,139.231,69.033,137.75,83.179L137.75,83.179z"/>
	<path fill-rule="evenodd" clip-rule="evenodd" fill="#C2C3C4" d="M136.101,75.806c1.031,4.021-0.351,17.013-0.557,19.59
		c-0.207,2.578,0.659,12.022-2.743,13.466c-3.403,1.445-7.011,1.32-11.858-2.701c-4.845-4.021-9.65-10.95-9.134-15.279
		c0.377-3.178,2.037-11.43,10.079-16.343C126.189,71.902,134.148,68.195,136.101,75.806L136.101,75.806z M137.957,83.508
		c-0.676,6.471,0.5,15.433,2.495,19.848c5.778,12.817,24.273,8.186,27.118-1.875c2.246-7.916,0.975-17.854-6.043-23.18
		C153.768,72.412,139.438,69.362,137.957,83.508L137.957,83.508z"/>
	<path fill-rule="evenodd" clip-rule="evenodd" fill="#D1D2D4" d="M135.688,76.321c1.031,4.021-0.186,16.497-0.392,19.075
		c-0.207,2.578,0.598,11.776-2.804,13.219c-3.404,1.443-6.291,1.196-11.136-2.825c-4.846-4.021-9.197-10.559-8.682-14.888
		c0.378-3.177,1.543-10.955,9.584-15.868C126.004,72.727,133.737,68.71,135.688,76.321L135.688,76.321z M138.164,83.838
		c-0.678,6.47,0.586,14.933,2.618,19.332c5.748,12.487,23.321,7.58,26.19-2.206c2.327-7.891,1.017-16.905-6.001-22.231
		C153.211,72.846,139.644,69.692,138.164,83.838L138.164,83.838z"/>
	<path fill-rule="evenodd" clip-rule="evenodd" fill="#E1E2E3" d="M135.276,76.837c1.031,4.021-0.021,15.981-0.227,18.559
		c-0.206,2.578,0.536,11.529-2.868,12.972c-3.401,1.443-5.567,1.071-10.413-2.95c-4.846-4.021-8.744-10.166-8.228-14.498
		c0.378-3.176,1.047-10.48,9.089-15.392C125.818,73.552,133.324,69.226,135.276,76.837L135.276,76.837z M138.37,84.169
		c-0.677,6.47,0.674,14.434,2.742,18.817c5.719,12.158,22.368,6.973,25.262-2.536c2.408-7.866,1.059-15.957-5.959-21.283
		C152.654,73.278,139.85,70.022,138.37,84.169L138.37,84.169z"/>
	<path fill-rule="evenodd" clip-rule="evenodd" fill="#F0F1F1" d="M134.862,77.353c1.032,4.021,0.146,15.465-0.062,18.043
		c-0.207,2.578,0.474,11.281-2.928,12.724c-3.402,1.445-4.847,0.95-9.692-3.071c-4.846-4.021-8.291-9.775-7.775-14.105
		c0.378-3.177,0.553-10.008,8.596-14.919C125.632,74.376,132.912,69.742,134.862,77.353L134.862,77.353z M138.576,84.499
		c-0.677,6.47,0.762,13.936,2.865,18.302c5.689,11.827,21.416,6.366,24.334-2.867c2.488-7.842,1.1-15.008-5.919-20.334
		C152.098,73.712,140.056,70.353,138.576,84.499L138.576,84.499z"/>
	<path fill-rule="evenodd" clip-rule="evenodd" fill="#FFFFFF" d="M134.45,77.868c1.032,4.021,0.309,14.952,0.104,17.529
		c-0.207,2.577,0.412,11.032-2.991,12.475c-3.401,1.445-4.124,0.826-8.97-3.195c-4.847-4.022-7.837-9.383-7.321-13.714
		c0.377-3.176,0.057-9.532,8.099-14.444C125.447,75.202,132.5,70.257,134.45,77.868L134.45,77.868z M138.782,84.828
		c-0.677,6.47,0.85,13.437,2.99,17.786c5.658,11.5,20.462,5.763,23.406-3.195c2.569-7.818,1.14-14.059-5.878-19.385
		C151.54,74.145,140.263,70.682,138.782,84.828L138.782,84.828z"/>
	<path fill-rule="evenodd" clip-rule="evenodd" d="M127.477,89.754c-1.078,3.479,1.939,5.362,4.07,4.924
		c2.129-0.439,3.372-2.939,3.058-5.052C134.064,86.004,129.157,84.33,127.477,89.754L127.477,89.754z"/>
	<path fill-rule="evenodd" clip-rule="evenodd" d="M140.201,89.754c-0.747,3.479,2.449,5.362,4.537,4.924
		c2.088-0.439,3.094-2.939,2.578-5.052C146.434,86.004,141.366,84.33,140.201,89.754L140.201,89.754z"/>
	<path fill-rule="evenodd" clip-rule="evenodd" d="M128.291,90.475c0.068,1.351,1.168,1.911,2.655,0.541
		C136.134,86.238,128.073,86.2,128.291,90.475L128.291,90.475z"/>
	<path fill-rule="evenodd" clip-rule="evenodd" fill="#646567" d="M128.486,90.266c0.061,1.197,1.035,1.693,2.353,0.48
		C135.438,86.511,128.294,86.479,128.486,90.266L128.486,90.266z"/>
	<path fill-rule="evenodd" clip-rule="evenodd" fill="#9C9E9F" d="M128.682,90.057c0.053,1.044,0.902,1.477,2.051,0.417
		C134.743,86.784,128.513,86.755,128.682,90.057L128.682,90.057z"/>
	<path fill-rule="evenodd" clip-rule="evenodd" fill="#CFD1D2" d="M128.876,89.85c0.045,0.89,0.769,1.258,1.749,0.355
		C134.044,87.057,128.732,87.031,128.876,89.85L128.876,89.85z"/>
	<path fill-rule="evenodd" clip-rule="evenodd" fill="#FFFFFF" d="M129.071,89.641c0.038,0.737,0.637,1.042,1.449,0.295
		C133.349,87.331,128.952,87.309,129.071,89.641L129.071,89.641z"/>
	<path fill-rule="evenodd" clip-rule="evenodd" d="M144.979,90.165c-0.668,1.352-2.016,1.912-2.896,0.542
		C139.014,85.929,147.092,85.892,144.979,90.165L144.979,90.165z"/>
	<path fill-rule="evenodd" clip-rule="evenodd" fill="#646567" d="M144.875,89.957c-0.592,1.197-1.786,1.694-2.565,0.479
		C139.589,86.202,146.749,86.169,144.875,89.957L144.875,89.957z"/>
	<path fill-rule="evenodd" clip-rule="evenodd" fill="#9C9E9F" d="M144.773,89.748c-0.516,1.044-1.557,1.478-2.238,0.418
		C140.165,86.475,146.406,86.446,144.773,89.748L144.773,89.748z"/>
	<path fill-rule="evenodd" clip-rule="evenodd" fill="#CFD1D2" d="M144.67,89.54c-0.439,0.89-1.328,1.26-1.908,0.356
		C140.739,86.748,146.063,86.723,144.67,89.54L144.67,89.54z"/>
	<path fill-rule="evenodd" clip-rule="evenodd" fill="#FFFFFF" d="M144.568,89.331c-0.364,0.737-1.1,1.042-1.579,0.295
		C141.315,87.021,145.721,87,144.568,89.331L144.568,89.331z"/>
	<path fill-rule="evenodd" clip-rule="evenodd" d="M108.157,83.436c-1.237,0.515-3.505-1.031-4.846-2.938
		c-1.34-1.907-0.619-3.919,0.463-6.703c1.083-2.783,2.939-4.949,6.445-5.052c3.506-0.103,3.866,5.052,3.661,5.671
		c-0.207,0.62-0.67,1.65-0.67,1.65s0.413-2.474-0.103-3.97c-0.516-1.496-1.908-3.041-4.382-2.371s-4.692,3.867-5.259,6.651
		s0.774,4.125,1.496,5.155C105.682,82.56,108.157,83.436,108.157,83.436L108.157,83.436z M105.527,73.95
		c-0.773,2.579,0.051,4.073,1.495,3.3c1.444-0.774,1.495-0.979,1.65-0.463c0.155,0.515,1.187-0.98-0.309-1.083
		c-1.495-0.103-0.774-1.289,0.309-0.721c1.083,0.567,1.495,2.319,1.495,2.319s0.619-1.959-1.135-3.042
		C107.28,73.176,105.527,73.95,105.527,73.95L105.527,73.95z"/>
	<path fill-rule="evenodd" clip-rule="evenodd" fill="#F29967" d="M104.108,77.019c0.515,3.919,3.093,5.723,4.485,3.97
		s2.011-3.351,0-3.454c-2.01-0.104-2.888,1.598-3.557-0.619c-0.67-2.217-0.465-3.506,2.319-4.177c2.784-0.67,4.125,0.155,3.97,2.166
		c-0.155,2.011,0.979,2.32,1.392-0.67c0.413-2.99,0-3.763-2.063-4.279C108.593,69.441,102.975,72.276,104.108,77.019L104.108,77.019
		z"/>
	<path fill-rule="evenodd" clip-rule="evenodd" fill="#DD784A" d="M170.81,73.615c1.031,2.062,1.032,2.448,2.783,4.794
		c1.753,2.347,2.089,4.331,2.888,4.228c0.799-0.104,2.475-1.237,3.377-1.985s2.037-3.454,1.701-4.228
		c-0.334-0.773-1.392-5.928-3.352-6.754c-1.959-0.825-2.731-1.881-4.769-1.133C171.402,69.286,170.784,70.393,170.81,73.615
		L170.81,73.615z"/>
	<path fill-rule="evenodd" clip-rule="evenodd" d="M176.299,82.508c1.238,0.516,3.507-1.031,4.848-2.938
		c1.34-1.908,0.617-3.918-0.465-6.703c-1.083-2.783-2.938-4.949-6.444-5.051c-3.505-0.104-3.867,5.051-3.661,5.671
		c0.207,0.619,0.671,1.65,0.671,1.65s-0.412-2.474,0.103-3.97c0.516-1.495,1.908-3.042,4.383-2.371
		c2.475,0.67,4.691,3.867,5.258,6.649c0.568,2.785-0.772,4.125-1.494,5.155C178.774,81.631,176.299,82.508,176.299,82.508
		L176.299,82.508z M178.929,73.022c0.773,2.578-0.051,4.072-1.495,3.299c-1.443-0.772-1.494-0.979-1.65-0.463
		c-0.154,0.516-1.186-0.979,0.311-1.083c1.494-0.104,0.772-1.289-0.311-0.722c-1.082,0.567-1.494,2.32-1.494,2.32
		s-0.619-1.959,1.135-3.042C177.176,72.25,178.929,73.022,178.929,73.022L178.929,73.022z"/>
	<path fill-rule="evenodd" clip-rule="evenodd" fill="#F29967" d="M180.349,76.091c-0.516,3.918-3.094,5.723-4.485,3.969
		c-1.393-1.752-2.011-3.351,0-3.454c2.01-0.102,2.887,1.599,3.557-0.618c0.671-2.217,0.465-3.507-2.32-4.177
		c-2.783-0.669-4.124,0.156-3.969,2.166c0.154,2.011-0.979,2.32-1.393-0.67c-0.412-2.99,0-3.763,2.063-4.279
		C175.863,68.513,181.482,71.349,180.349,76.091L180.349,76.091z"/>
	<path fill-rule="evenodd" clip-rule="evenodd" fill="#E95D0F" d="M130.917,62.841c-7.373,7.011-3.764,19.9-3.609,19.179
		c0.156-0.722-1.237-4.64,0.722-8.455c1.958-3.814,3.042-7.011,3.042-7.011s-2.888,4.588-1.134,9.022
		c1.753,4.434,2.164,7.733,2.216,7.321s-0.103-4.331,0-8.868c0.104-4.536,1.65-7.063,1.65-7.063s0.465,12.529,1.031,10.415
		c0.567-2.113-0.412-3.867,0.877-6.857c1.289-2.99,5.156-9.538,4.588-9.28c-0.566,0.258-2.113,1.082-2.525,1.701
		c-0.413,0.62-1.289,2.012-1.289,1.186c0-0.824,1.082-2.939,0.258-2.475c-0.826,0.464-3.146,2.475-4.022,5.001
		c-0.876,2.526-1.134,4.125-1.134,3.661c0-0.465,1.34-7.579,0.67-6.753c-0.67,0.824-4.074,7.114-4.021,6.805
		c0.051-0.309,1.185-5.258,3.401-7.115c2.216-1.856,3.042-2.887,3.042-2.887L130.917,62.841L130.917,62.841z"/>
	<path fill-rule="evenodd" clip-rule="evenodd" fill="#E95D0F" d="M154.168,68.77c8.042,0.723,4.639,17.529,5.258,16.395
		c0.62-1.133,2.063-4.021,2.372-7.114c0.309-3.094,0.103-3.918,0.103-3.918s2.888,3.609,2.27,9.486
		c-0.619,5.878-1.65,9.28-1.65,9.28s1.65-3.093,3.402-10.517c1.753-7.424,1.65-10.518-1.031-13.404
		c-2.681-2.887-6.289-4.332-9.177-4.332s-6.495,0-4.329,0.311c2.164,0.309,3.813-1.238,5.876,1.134
		c2.062,2.372-11.96,0.413-11.96,0.413L154.168,68.77L154.168,68.77z"/>
	<path fill-rule="evenodd" clip-rule="evenodd" fill="#EE8027" d="M131.087,65.519c-2.32,7.372-0.361,15.054-0.361,15.054
		s0.258-5.62,1.443-7.786c1.188-2.166,1.496-3.814,1.496-3.814s-0.928,7.217-0.773,6.753c0.154-0.464,1.031-5.877,2.423-7.476
		c1.392-1.599,4.021-2.371,4.021-2.371s-0.721-1.443-2.99-0.464c-2.27,0.979-2.475,1.649-3.867,4.69
		c-1.392,3.042-1.546,3.558-1.546,3.558s-0.154-4.587,1.34-7.423c1.495-2.836,4.537-1.907,4.537-1.907
		S133.459,62.373,131.087,65.519L131.087,65.519z M149.338,66.704c5.414-1.495,8.558,0.464,10.774,4.073
		c2.218,3.609-0.103,13.25-0.103,13.25s2.113-8.094,2.164-10.26c0.053-2.166-0.051-2.784-0.051-2.784s2.32,0.979,2.784,5.516
		c0.464,4.537,0.052,5.671,0.052,5.671l1.082-7.939c0,0,0.929,1.805,0.414,4.794c-0.517,2.99-1.548,5.464-1.548,5.464
		s2.165-5.671,2.526-10.104c0.361-4.434-0.723-6.136-2.526-7.218c-1.804-1.083-3.454-1.443-3.145-1.34
		c0.31,0.103,3.3,2.114,4.073,4.125c0.773,2.01,0.773,2.062,0.773,2.062s-0.516-1.598-3.352-3.609
		c-2.836-2.01-4.176-2.526-4.176-2.526s1.082,2.526,1.03,2.268C160.061,67.89,156.143,63.663,149.338,66.704L149.338,66.704z
		 M137.842,63.662c0,0-4.332-2.68-8.146,0.051c-3.814,2.732-2.99,14.281-2.99,14.281s-0.206-7.734,2.475-11.601
		C131.861,62.528,134.077,62.27,137.842,63.662L137.842,63.662z"/>
</g>
</svg>
